<svg xmlns:xlink="http://www.w3.org/1999/xlink" width="197.999" height="49.998" xmlns="http://www.w3.org/2000/svg"><defs><clipPath id="prefix__c"><path d="M0 0h49.998v49.998H0z" style="fill:#fff;stroke:#707070"/></clipPath><clipPath id="prefix__d"><path d="M27.921 0c7.957 0 15.1 1.077 20.217 2.939C52.786 4.63 55.66 7.015 55.616 9.8c-.045 2.81-2.973 5.13-7.921 6.824-.07.024-.227.077-.387.128-4.887 1.591-11.739 2.5-19.388 2.5C12.5 19.254 0 14.944 0 9.627 0 7.043 2.953 4.7 7.822 2.945 12.84 1.139 19.995 0 27.921 0Z" style="stroke:#4382ff;fill:transparent"/></clipPath><clipPath id="prefix__e"><path d="M28.429 0c15.7 0 28.429 4.31 28.429 9.627s-12.728 9.627-28.429 9.627S0 14.944 0 9.627 12.728 0 28.429 0Z" style="stroke:#000;stroke-width:.2px;fill:none"/></clipPath><clipPath id="prefix__f"><path d="M28.029 0c7.988 0 15.159 1.086 20.3 2.963 4.666 1.7 7.552 4.109 7.507 6.917-.045 2.833-2.985 5.172-7.952 6.879l-.388.13c-4.906 1.6-11.785 2.521-19.463 2.521C12.549 19.409 0 15.064 0 9.7c0-2.6 2.964-4.97 7.852-6.736C12.89 1.148 20.072 0 28.029 0Z" style="stroke:#ffe300;fill:#0e6ab5"/></clipPath><clipPath id="prefix__g"><path d="M28.429 0c15.7 0 28.429 4.31 28.429 9.627s-12.728 9.627-28.429 9.627S0 14.944 0 9.627 12.728 0 28.429 0Z" class="prefix__e"/></clipPath><clipPath id="prefix__h"><path d="M0 0h37.265v7.211H0z" style="fill:url(#prefix__a)" transform="translate(-4.745 -.074)"/></clipPath><clipPath id="prefix__j"><path d="M0 0h37.265v7.211H0z" style="fill:url(#prefix__b)"/></clipPath><linearGradient id="prefix__a" x1=".5" x2=".5" y1="1" gradientUnits="objectBoundingBox"><stop offset="0" stop-color="#fff"/><stop offset="1" stop-color="#fff" stop-opacity="0"/></linearGradient><linearGradient xlink:href="#prefix__a" id="prefix__b" y1="0" y2="1"/><linearGradient id="prefix__i" x1=".5" x2=".5" y2="1" gradientUnits="objectBoundingBox"><stop offset="0" stop-color="#fff" stop-opacity=".4"/><stop offset=".096" stop-color="#fff" stop-opacity=".165"/><stop offset=".197" stop-color="#fff" stop-opacity="0"/><stop offset=".774" stop-color="#fff" stop-opacity="0"/><stop offset=".876" stop-color="#fff" stop-opacity="0"/><stop offset="1" stop-color="#fff" stop-opacity="0"/></linearGradient><linearGradient xlink:href="#prefix__i" id="prefix__k" y1="1" y2="0"/><style>.prefix__e,.prefix__n{fill:none}.prefix__h{fill:#0e6ab5}.prefix__j{fill:#fdd000}.prefix__aa,.prefix__v,.prefix__w{stroke:none}.prefix__w{fill:#4382ff}.prefix__aa{fill:#fff}</style></defs><path d="m125.574 15.122-6.027-5.756h6.027V5.777h-13.2V4.345a32.565 32.565 0 0 0-4.665 1.432h-13.3v3.589h7.91l-7.858 5.714 7.858.042 7.6-5.756h3.476l5.533 5.756Zm-16.426 9.617v2.558a1.9 1.9 0 0 1-.486.851 2.851 2.851 0 0 1-.981.524l-7.067-.007V24.74Zm4.633 4.32v-7.163H95.917v9.656h14.671a4.862 4.862 0 0 0 2.428-.511 2.956 2.956 0 0 0 .765-1.982Zm11.477-12.6H94.127v3.827l24.312.028v7.838a2.719 2.719 0 0 1-.847 1.82 2.57 2.57 0 0 1-1.642.5 1.7 1.7 0 0 0-1.07.895 5.129 5.129 0 0 0-.349 1.29v.335h5.015s2.147-.028 2.922-.794a4.087 4.087 0 0 0 .666-2.59V20.29h2.125ZM66.162 9.363V27.58a1.088 1.088 0 0 1-.178.573.786.786 0 0 1-.606.265h-2.2V9.363Zm4.59 19.347-.061-23.483H58.645l.037 26.994h8.875s1.9-.117 2.58-1.279a4.322 4.322 0 0 0 .615-2.232ZM86.6 4.683H71.5V8.67h17.929V4.683ZM76.399 9.756h-4.833a21.481 21.481 0 0 0 1.161 5.381 20.75 20.75 0 0 0 2.538 5.346 34.079 34.079 0 0 0 6.641 7.8 35.493 35.493 0 0 0 7.572 4.833l-.066-5.481a55.708 55.708 0 0 1-4.968-3.753c-2.349-2.025-3.078-3-5.264-6.29a21.375 21.375 0 0 1-2.781-7.836Z" class="prefix__h"/><path d="M84.758 8.566a22.925 22.925 0 0 1-2.211 7.651c-1.9 3.7-2.632 4.4-5.37 7.16a23.8 23.8 0 0 1-5.616 4.187v5.57a31.207 31.207 0 0 0 8.95-6.107c3.887-3.966 4.488-4.937 6.7-9.687a22.879 22.879 0 0 0 2.211-8.774Zm72.36 15.472v-4.266h.978a.471.471 0 0 1 .38.191.968.968 0 0 1 .127.511v3.6Zm-4.293 0v-4.266h1.458v4.266Zm-4.644 0v-4.266h1.448v4.266Zm12.941-6.518a2.2 2.2 0 0 0-1.425-.651l-14.377-.008v16.144h2.862v-6.074h1.485v6.074h3.159v-6.074h1.458v6.04h2.835v-6.04l1.485.034v4.04a1.726 1.726 0 0 1-.349 1.182 1.71 1.71 0 0 1-1.136.463v.315h1.856a3.211 3.211 0 0 0 2.219-.967 2.694 2.694 0 0 0 .624-1.56V18.994a2.462 2.462 0 0 0-.696-1.475Zm-25.782 7.275 3.593-10.4h-3.593l3.344-8.951h-4.07c-.411 1.431-4.3 12.481-4.3 12.481h3.51l-3.51 10.051 7.128-.014 1.185-3.17Zm2.572 6.015h-7.6v2.193h6.785Z" class="prefix__h"/><path d="M157.496 8.647v2.451a1.179 1.179 0 0 1-.337.76 1.345 1.345 0 0 1-.874.327h-12.056V8.647Zm4.32 2.55V5.768l-7.884.006V4.339l-4.888 1.435-9.062-.007v7.918c0 2.9.007 16 .007 16l-1.822 3.322h3.861l2.2-3.322s-.023-10.561 0-14.208h13.6a4.94 4.94 0 0 0 2.949-1.16 5.505 5.505 0 0 0 1.036-3.119Zm12.522 3.25h4.319v-3.312h-4.319v-3.2l3.96-.391V4.828h-11.763V8.3h4.265v2.835h-4.265v3.312h4.265V33.03h3.538Zm18.66-6.873v3.164a1.18 1.18 0 0 1-.337.76 1.345 1.345 0 0 1-.874.327h-7.433V7.574Zm4.647 3.581V4.331l-7.884.006h-2.74l-7.312-.007v10.782h13.949a4.94 4.94 0 0 0 2.949-1.16 4.8 4.8 0 0 0 1.039-2.795Zm-8.298 20.038 2.97-6.047h-2.97l2.97-5.4h5.319v-2.9h-8.22l-4.315 8.3h-5.364v2.143h6.938L183.921 33h13.715v-1.807Z" class="prefix__h"/><path d="M170.086 16.141h-2.9l-1.13 14.7h2.966Zm4.975-.018h2.874l.727 14.724h-2.845Zm11.473 3.623 1.486-2.9h-8.284v2.9Zm-3.567 13.253.736-1.836h-3.968v1.836Zm9.649-5.731 1.143-2.194h3.926v2.194ZM61.14 45.993h1.425v-7.509h2.866V37.05H58.62v1.434h2.519Zm15.751-3.586 1.085-3.222h.347l1.08 3.222Zm3.953 3.585h1.782l-3.579-8.951h-1.771l-3.259 8.948h1.8l.734-2.158h3.214Zm44.457.001h1.418v-8.965h-1.422Zm-33.885 0h1.437v-6.755l3.579 6.755h1.818v-8.939h-1.465v6.671l-.962-1.947-2.59-4.728h-1.811Zm17.997-5.575a2.076 2.076 0 0 1 2.266-1.942 1.963 1.963 0 0 1 2.042 2.153c-.017.179.006 1.421 0 1.8a1.973 1.973 0 0 1-2.042 2.135 2.116 2.116 0 0 1-2.266-2.091c.015-.237.007-1.648 0-2.055Zm6.8 4.142h-1.426a3.271 3.271 0 0 0 .736-1.8c-.012-.332 0-2.009 0-2.5a3.555 3.555 0 0 0-3.841-3.215 3.769 3.769 0 0 0-4.048 3.379 55.805 55.805 0 0 0 0 2.007A3.857 3.857 0 0 0 110.855 46c0 .006 5.358.006 5.358.006Zm29.251 1.412h3.543v-1.417h-2.875c-1.233 0-2.034-.7-2.156-2.483.007-.124-.007-.742 0-1.106.058-1.469.914-2.506 2.088-2.469h2.93V37.05h-3.175c-1.646-.054-3.355 1.31-3.293 3.916v1.106c-.051 2.568 1.228 3.908 2.938 3.9Zm16.421.022c2.386 0 4.028-1.62 4.028-4.542s-1.644-4.416-4.028-4.416-4.2 1.483-4.2 4.42 1.813 4.538 4.2 4.538Zm0-1.425c-1.339 0-2.4-1.193-2.4-3.116s1.065-2.97 2.4-2.97 2.25 1.035 2.25 2.97-.913 3.116-2.25 3.116Zm12.854 1.424h3.7c2.653 0 3.819-1.509 3.819-4.54s-1.392-4.377-3.82-4.41h-3.71Zm1.759-1.441v-6.055h1.483c1.68 0 2.805.752 2.805 2.955s-1.02 3.1-2.7 3.1Zm15.865.453a3.711 3.711 0 0 0 2.834.987h2.8v-1.431h-3.245a1.356 1.356 0 0 1-1.11-.6 4.029 4.029 0 0 1-.305-1.543h4.66v-1.453l-4.66.018v-1.247a1.308 1.308 0 0 1 .392-.849 1.953 1.953 0 0 1 1.023-.4h3.245v-1.46h-3.5a2.619 2.619 0 0 0-2.413 1.459 8.99 8.99 0 0 0-.54 2.981s-.095 2.407.819 3.538Z" class="prefix__h"/><g style="clip-path:url(#prefix__c)"><g class="prefix__j"><path d="M27.477 49.444h-5.131l-1.171-3.718-.088-.28-.287-.059a20.582 20.582 0 0 1-2.49-.687l-.281-.097-.22.202-2.82 2.589-4.444-2.574.841-3.815.063-.284-.216-.195a20.938 20.938 0 0 1-1.771-1.797l-.195-.224-.29.064-3.756.833-2.566-4.459 2.397-2.626c5.333 1.862 12.415 2.885 19.995 2.885 7.755 0 14.796-.938 19.884-2.644l2.385 2.612-2.567 4.459-3.82-.848-.285-.063-.196.218a20.96 20.96 0 0 1-1.848 1.82l-.224.195.064.29.84 3.805-4.445 2.574-2.928-2.69-.215-.196-.278.09a20.57 20.57 0 0 1-2.403.62l-.293.057-.089.284-1.152 3.659ZM5.144 17.768l-2.49-2.727 2.567-4.46 3.854.856.288.064.195-.221a20.72 20.72 0 0 1 1.697-1.708l.217-.195-.063-.285-.864-3.918 4.444-2.573 2.918 2.679.218.2.28-.095c.828-.28 1.68-.51 2.537-.683l.29-.059.088-.281L22.48.674h5.131l1.161 3.688.089.281.29.059c.823.166 1.644.385 2.44.65l.28.094.217-.2 2.881-2.645 4.445 2.573-.842 3.819-.064.287.22.195a20.944 20.944 0 0 1 1.84 1.843l.196.222.288-.064 3.803-.844 2.567 4.459-2.416 2.647c-5.182-1.821-12.25-2.822-19.96-2.822-7.536 0-14.58 1.011-19.903 2.852Z" class="prefix__v"/><path d="m27.11 48.944 1.221-3.877.584-.114a19.97 19.97 0 0 0 2.345-.605l.555-.18 3.088 2.835 3.81-2.206-.89-4.028.45-.39a20.455 20.455 0 0 0 1.803-1.777l.39-.436 4.033.895 2.201-3.824-1.92-2.103c-5.112 1.658-12.081 2.568-19.733 2.568-7.487 0-14.5-.994-19.847-2.805L3.27 35.01l2.201 3.824 3.977-.883.39.448a20.434 20.434 0 0 0 1.729 1.754l.433.39-.888 4.027 3.81 2.206 2.988-2.744.563.195c.793.273 1.61.498 2.43.67l.573.12 1.236 3.926h4.398M5.293 17.189c5.335-1.791 12.31-2.773 19.754-2.773 7.61 0 14.609.971 19.813 2.742l1.948-2.134-2.202-3.824-4.021.892-.39-.443a20.442 20.442 0 0 0-1.796-1.8l-.441-.39.89-4.036-3.81-2.205-3.045 2.795-.56-.186a20.13 20.13 0 0 0-2.38-.635l-.58-.117-1.228-3.901h-4.397L21.62 5.075l-.58.117c-.834.168-1.667.392-2.473.666l-.562.19-3.083-2.83-3.81 2.205.911 4.132-.435.39a20.373 20.373 0 0 0-1.656 1.666l-.39.441-4.07-.903-2.202 3.824 2.023 2.216m22.55 32.755H21.98l-1.28-4.068a21.09 21.09 0 0 1-2.552-.703l-3.09 2.838-5.079-2.941.92-4.172a21.44 21.44 0 0 1-1.813-1.84l-4.114.912-2.932-5.094 2.867-3.14c5.315 1.912 12.467 2.966 20.14 2.966 7.875 0 14.998-.97 20.059-2.732l-.01.026 2.836 3.106L45 40.196l-4.178-.927a21.462 21.462 0 0 1-1.893 1.864l.919 4.163-5.08 2.94-3.199-2.937c-.805.261-1.634.475-2.462.636l-1.262 4.009ZM4.91 18.38l.031-.094-2.902-3.18 2.932-5.093 4.212.935a21.378 21.378 0 0 1 1.738-1.75l-.943-4.274 5.079-2.941 3.188 2.927a21.082 21.082 0 0 1 2.598-.7L22.114.174h5.865l1.271 4.037c.844.17 1.685.395 2.5.667l3.153-2.894 5.079 2.94L39.06 9.1a21.447 21.447 0 0 1 1.884 1.888l4.162-.924 2.932 5.094-2.879 3.154.005.013c-5.156-1.876-12.3-2.91-20.118-2.91-7.67 0-14.822 1.054-20.136 2.965Z" class="prefix__w"/></g><g class="prefix__j"><path d="M27.477 49.444h-5.13l-1.171-3.718-.088-.279-.287-.06a20.558 20.558 0 0 1-2.49-.687l-.281-.097-.22.202-2.82 2.589-4.443-2.574.841-3.815.063-.284-.217-.195a20.94 20.94 0 0 1-1.77-1.797l-.195-.224-.29.064-3.755.833-2.566-4.459L5.28 32.07l.197-.216-.092-.278a20.803 20.803 0 0 1-1.04-6.517c0-2.263.36-4.488 1.072-6.613l.093-.279-.198-.217-2.655-2.91 2.566-4.458 3.853.855.288.063.195-.22a20.93 20.93 0 0 1 1.697-1.708l.217-.195-.063-.285-.864-3.918 4.444-2.573 2.917 2.679.218.2.28-.095c.827-.28 1.68-.51 2.537-.683l.289-.059.089-.281L22.48.674h5.131l1.161 3.688.089.281.29.059a20.58 20.58 0 0 1 2.44.65l.279.094.217-.2 2.882-2.645 4.443 2.573-.842 3.819-.063.287.22.195a20.93 20.93 0 0 1 1.84 1.843l.195.222.288-.064 3.803-.844 2.567 4.459-2.632 2.884-.198.216.093.279a20.798 20.798 0 0 1 1.064 6.589c0 2.322-.38 4.6-1.127 6.775l-.097.28.2.22 2.59 2.836-2.567 4.459-3.82-.848-.285-.063-.195.217a20.95 20.95 0 0 1-1.848 1.821l-.224.195.064.29.84 3.805-4.445 2.574-2.928-2.69-.215-.196-.277.09c-.785.254-1.593.462-2.404.62l-.292.057-.09.284-1.151 3.659Z" class="prefix__v"/><path d="m25.068 48.77 1.22-3.877.585-.114c.79-.154 1.58-.357 2.345-.605l.555-.18 3.087 2.835 3.81-2.206-.89-4.028.449-.39a20.447 20.447 0 0 0 1.803-1.777l.39-.436 4.033.895 2.2-3.824-2.742-3.005.193-.561c.73-2.121 1.1-4.346 1.1-6.612 0-2.2-.35-4.364-1.039-6.431l-.185-.557 2.781-3.047-2.2-3.824-4.022.892-.39-.443a20.43 20.43 0 0 0-1.796-1.8l-.44-.39.89-4.035-3.81-2.206L29.95 5.84l-.559-.187a20.078 20.078 0 0 0-2.38-.635l-.58-.117L25.203 1h-4.397l-1.228 3.9-.579.118a20.07 20.07 0 0 0-2.473.666l-.562.19-3.083-2.83L9.072 5.25l.911 4.13-.435.39a20.428 20.428 0 0 0-1.656 1.667l-.39.441-4.07-.903-2.2 3.824 2.805 3.074-.187.557a20.296 20.296 0 0 0-1.046 6.455c0 2.175.342 4.315 1.015 6.36l.183.556-2.77 3.036 2.2 3.824 3.976-.883.39.448c.539.616 1.12 1.206 1.729 1.754l.433.39-.888 4.027 3.81 2.206 2.987-2.744.563.195c.792.273 1.61.498 2.43.67l.573.12 1.236 3.926h4.397m.734 1h-5.865l-1.28-4.068a20.968 20.968 0 0 1-2.55-.703l-3.09 2.838-5.079-2.941.92-4.172a21.36 21.36 0 0 1-1.813-1.84l-4.113.912L0 34.702l2.87-3.144a21.305 21.305 0 0 1-1.066-6.673c0-2.368.386-4.645 1.098-6.772L0 14.933 2.932 9.84l4.212.934c.545-.616 1.124-1.2 1.737-1.748L7.938 4.75l5.078-2.941 3.188 2.927c.843-.286 1.71-.52 2.598-.7L20.072 0h5.865l1.271 4.037a21.08 21.08 0 0 1 2.5.667L32.86 1.81l5.078 2.94-.92 4.177a21.359 21.359 0 0 1 1.883 1.887l4.161-.924 2.932 5.094-2.878 3.154a21.302 21.302 0 0 1 1.09 6.747c0 2.43-.406 4.763-1.154 6.937l2.835 3.106-2.932 5.094-4.178-.927a21.381 21.381 0 0 1-1.892 1.864l.918 4.163-5.078 2.94-3.199-2.937a20.97 20.97 0 0 1-2.462.636l-1.262 4.009Z" style="fill:#fdd000;stroke:none" transform="translate(2.042 .174)"/></g><g style="clip-path:url(#prefix__d)" transform="translate(-2.874 15.432)"><g style="fill:transparent"><path d="M27.917 30.357a20.635 20.635 0 0 1-14.64-6.071 20.663 20.663 0 0 1-6.065-14.66 20.663 20.663 0 0 1 6.065-14.658 20.635 20.635 0 0 1 14.64-6.071 20.635 20.635 0 0 1 14.64 6.071 20.663 20.663 0 0 1 6.065 14.659 20.663 20.663 0 0 1-6.065 14.658 20.635 20.635 0 0 1-14.64 6.072Z" class="prefix__v"/><path d="M27.917-10.603A20.137 20.137 0 0 0 13.63-4.678 20.165 20.165 0 0 0 7.712 9.627a20.165 20.165 0 0 0 5.918 14.305 20.137 20.137 0 0 0 14.287 5.925 20.137 20.137 0 0 0 14.287-5.925 20.165 20.165 0 0 0 5.918-14.305 20.165 20.165 0 0 0-5.918-14.305 20.137 20.137 0 0 0-14.287-5.925m0-1c11.711 0 21.205 9.505 21.205 21.23s-9.494 21.23-21.205 21.23c-11.711 0-21.205-9.505-21.205-21.23s9.494-21.23 21.205-21.23Z" class="prefix__w"/></g><g class="prefix__n" style="clip-path:url(#prefix__e)" transform="translate(-.309)"><path d="m26.489 44.173-1.287-4.237h8.155l-1.288 4.237Zm9.386-4.782 7.062-4.082 1 4.314-4.835 2.793Zm8.992-5.956 4.077-7.07 3.022 3.235-2.79 4.838Z" class="prefix__v"/><path d="m6.645 17.508 1.105-3.637H.405l1.105 3.637h5.135m7.302-1.828 4.447-2.57-.86-3.704-6.36 3.677 2.773 2.597m9.879-7.95 2.567-4.452L23.8.5l-3.673 6.37 3.699.86M6.867 17.808h-5.58L0 13.571h8.155l-1.288 4.237Zm7.038-1.757-3.232-3.025 7.062-4.082 1.002 4.314-4.832 2.793Zm10.07-7.978-4.31-1.002L23.742 0l3.022 3.235-2.79 4.838Z" style="fill:#000;stroke:none" transform="translate(25.202 26.365)"/></g></g><g style="clip-path:url(#prefix__f)" transform="translate(-2.842 15.401)"><g style="fill:#0e6ab5"><path d="M27.92 30.391a20.681 20.681 0 0 1-13.231-4.765 20.796 20.796 0 0 1-7.113-11.89l-.058-.29-.281-.089-3.746-1.184V6.957l3.78-1.196.28-.088.06-.287a20.806 20.806 0 0 1 7.141-11.775 20.668 20.668 0 0 1 13.168-4.714A20.67 20.67 0 0 1 41.123-6.36 20.8 20.8 0 0 1 48.25 5.48l.059.286.279.09 3.644 1.167v5.22l-3.64 1.166-.279.09-.058.287a20.802 20.802 0 0 1-13.191 15.343 20.679 20.679 0 0 1-7.143 1.262Z" class="prefix__v"/><path d="M24.93 41.494a20.18 20.18 0 0 0 12.892-4.635 20.3 20.3 0 0 0 6.95-11.57l.117-.575 3.851-1.233v-4.49l-3.855-1.235-.117-.574A20.299 20.299 0 0 0 31.895 2.23 20.184 20.184 0 0 0 24.929 1a20.17 20.17 0 0 0-12.85 4.6 20.304 20.304 0 0 0-6.97 11.492l-.12.572L1 18.926v4.484l3.96 1.251.116.58a20.295 20.295 0 0 0 12.87 15.018 20.183 20.183 0 0 0 6.983 1.235m0 1c-10.3 0-18.889-7.329-20.834-17.057L0 24.142v-5.948l4.13-1.307C6.14 7.244 14.689 0 24.93 0c10.273 0 18.844 7.292 20.818 16.983l3.992 1.278v5.95l-3.987 1.277C43.787 35.19 35.21 42.494 24.929 42.494Z" style="fill:#0e6ab5;stroke:none" transform="translate(2.991 -11.603)"/></g><path d="M1.287 17.808 0 13.571h8.155l-1.288 4.237Zm9.386-4.782 7.062-4.082 1 4.314-4.835 2.793Zm8.992-5.956L23.743 0l3.022 3.235-2.79 4.838Z" class="prefix__e" style="clip-path:url(#prefix__g)" transform="translate(24.893 26.365)"/></g><g style="clip-path:url(#prefix__h)" transform="translate(10.897 6.074)"><circle cx="18.633" cy="18.633" r="18.633" style="fill:url(#prefix__i)" transform="translate(-4.745 -.074)"/></g><g style="clip-path:url(#prefix__j)"><circle cx="18.633" cy="18.633" r="18.633" style="fill:url(#prefix__k)" transform="translate(6.152 5.946)"/></g><g class="prefix__n"><path d="M30.696 18.271c-4.225.433-6.946 6.79-6.946 6.79s2.721 6.358 6.946 6.79a6.728 6.728 0 0 0 7.65-6.79 6.728 6.728 0 0 0-7.65-6.79Z" class="prefix__v"/><path d="M31.5 20.23c-.197 0-.4.01-.6.03-2.093.215-4.025 3.09-4.927 4.797.285.54.72 1.294 1.277 2.053 1.22 1.659 2.516 2.636 3.65 2.752.2.02.403.031.6.031 1.344 0 2.573-.482 3.46-1.358.894-.881 1.386-2.115 1.386-3.474 0-1.358-.492-2.592-1.385-3.473-.888-.876-2.117-1.359-3.46-1.359m0-2c3.846 0 6.845 2.883 6.845 6.832 0 4.22-3.425 7.224-7.65 6.79-4.225-.432-6.946-6.79-6.946-6.79s2.721-6.357 6.946-6.79c.272-.028.54-.042.805-.042Z" class="prefix__aa"/></g><g class="prefix__n"><path d="M18.945 18.271c4.225.433 6.946 6.79 6.946 6.79s-2.722 6.354-6.946 6.791a6.728 6.728 0 0 1-7.65-6.791 6.728 6.728 0 0 1 7.65-6.79Z" class="prefix__v"/><path d="M18.14 20.23c-1.344 0-2.572.482-3.46 1.358-.893.881-1.385 2.115-1.385 3.473 0 1.359.492 2.592 1.385 3.474.887.876 2.116 1.358 3.46 1.358.197 0 .4-.01.6-.03 2.094-.215 4.025-3.09 4.927-4.798a16.5 16.5 0 0 0-1.277-2.052c-1.22-1.659-2.515-2.636-3.65-2.753a5.92 5.92 0 0 0-.6-.03m0-2c.264 0 .533.013.805.04 4.224.434 6.946 6.791 6.946 6.791s-2.722 6.358-6.946 6.79c-4.225.434-7.65-2.57-7.65-6.79 0-3.949 2.998-6.832 6.845-6.832Z" class="prefix__aa"/></g></g></svg>