<svg xmlns:xlink="http://www.w3.org/1999/xlink" width="768" height="48" viewBox="0 0 203.2 12.7" xmlns="http://www.w3.org/2000/svg"><defs><radialGradient xlink:href="#prefix__a" id="prefix__c" cx="146.05" cy="6.35" r="3.175" fx="146.05" fy="6.35" gradientTransform="matrix(-2 0 0 -2 438.15 19.05)" gradientUnits="userSpaceOnUse"/><radialGradient xlink:href="#prefix__a" id="prefix__b" cx="547.334" cy="2.822" r="8" fx="547.334" fy="2.822" gradientTransform="matrix(1.64158 .06138 -.08792 2.35144 -351.366 -25.34)" gradientUnits="userSpaceOnUse"/><linearGradient id="prefix__a" x1="114.114" x2="32.006" y1="112.635" y2="30.527" gradientTransform="translate(50.545 -.255) scale(.05359)" gradientUnits="userSpaceOnUse"><stop offset="0" stop-color="#7b49ad"/><stop offset="1" stop-color="#6aa8fb"/></linearGradient></defs><g style="fill:#000"><path fill="none" d="M76.2 0h6.35v6.35H76.2Z"/><path d="M79.11 6.242v-.953a2.517 2.517 0 0 1-2.38-2.51A2.516 2.516 0 0 1 79.242.264a2.516 2.516 0 0 1 2.513 2.513c0 1.31-.91 2.627-2.267 3.281zm.133-5.448a1.985 1.985 0 0 0 0 3.968h.397v.609c.963-.609 1.587-1.609 1.587-2.593A1.985 1.985 0 0 0 79.243.794Zm-.265 3.042h.53v.53h-.53zm.53-.396h-.53c0-.86.794-.794.794-1.323a.53.53 0 0 0-.53-.53.53.53 0 0 0-.528.53h-.53a1.058 1.058 0 1 1 2.117 0c0 .661-.794.727-.794 1.323z"/></g><g style="fill:#000"><path fill="none" d="M19.05 0h6.35v6.35h-6.35Z"/><path d="M16 9v10H8V9h8m-1.5-6h-5l-1 1H5v2h14V4h-3.5ZM18 7H6v12c0 1.1.9 2 2 2h8c1.1 0 2-.9 2-2z" style="fill:#000" transform="translate(19.05) scale(.26458)"/></g><g style="fill:#000"><path fill="none" d="M6.35 0h6.35v6.35H6.35z"/><path d="M18 15v3H6v-3H4v3c0 1.1.9 2 2 2h12c1.1 0 2-.9 2-2v-3Zm-1-4-1.41-1.41L13 12.17V4h-2v8.17L8.41 9.59 7 11l5 5z" style="fill:#000" transform="translate(6.35) scale(.26458)"/></g><g style="fill:#000"><path fill="none" d="M12.7 0h6.35v6.35H12.7z"/><path d="M18 15v3H6v-3H4v3c0 1.1.9 2 2 2h12c1.1 0 2-.9 2-2v-3ZM7 9l1.41 1.41L11 7.83V16h2V7.83l2.59 2.58L17 9l-5-5Z" style="fill:#000" transform="translate(12.7) scale(.26458)"/></g><g style="fill:#000"><path fill="none" d="M139.7 0h-6.35v6.35h6.35Z"/><path d="M17 7h-4v2h4c1.65 0 3 1.35 3 3s-1.35 3-3 3h-4v2h4c2.76 0 5-2.24 5-5s-2.24-5-5-5zm-6 8H7c-1.65 0-3-1.35-3-3s1.35-3 3-3h4V7H7c-2.76 0-5 2.24-5 5s2.24 5 5 5h4zm-3-4h8v2H8Z" style="fill:#000" transform="matrix(-.26458 0 0 .26458 139.7 0)"/></g><path d="m33.474 1.724 2.901 1.451-2.9 1.45v-2.9" style="fill:#327ae7;fill-opacity:1;stroke:#327ae7;stroke-width:.297656;stroke-linecap:round;stroke-linejoin:round;stroke-miterlimit:4;stroke-dasharray:none;stroke-opacity:1"/><path fill="none" d="M31.75 0h6.35v6.35h-6.35z" style="fill:none;stroke-width:.264583"/><g style="fill:#000"><path fill="none" d="M25.4 0h6.35v6.35H25.4Z"/><path d="M12 22c1.1 0 2-.9 2-2h-4c0 1.1.9 2 2 2zm6-6v-5c0-3.07-1.63-5.64-4.5-6.32V4c0-.83-.67-1.5-1.5-1.5s-1.5.67-1.5 1.5v.68C7.64 5.36 6 7.92 6 11v5l-2 2v1h16v-1zm-2 1H8v-6c0-2.48 1.51-4.5 4-4.5s4 2.02 4 4.5z" style="fill:#000" transform="translate(25.4) scale(.26458)"/></g><g style="fill:#000"><path fill="none" d="M44.45 0h6.35v6.35h-6.35Zm0 0h6.35v6.35h-6.35Z"/><path d="M22 9V7h-2V5c0-1.1-.9-2-2-2H4c-1.1 0-2 .9-2 2v14c0 1.1.9 2 2 2h14c1.1 0 2-.9 2-2v-2h2v-2h-2v-2h2v-2h-2V9Zm-4 10H4V5h14ZM6 13h5v4H6Zm6-6h4v3h-4ZM6 7h5v5H6Zm6 4h4v6h-4z" style="fill:#327ae7;fill-opacity:1" transform="translate(44.45) scale(.26458)"/></g><g style="fill:#000"><path fill="none" d="M120.65 0H127v6.35h-6.35Zm0 0H127v6.35h-6.35Z"/><path d="M172 99c-1.1 0-2 .9-2 2v14c0 1.1.9 2 2 2h14c1.1 0 2-.9 2-2v-2h2v-2h-2v-2h2v-2h-2v-2h2v-2h-2v-2c0-1.1-.9-2-2-2zm7 4 5 5h-3v4h-4v-4h-3z" style="fill:#000;fill-opacity:1" transform="translate(76.2 -25.4) scale(.26458)"/></g><path fill="url(#prefix__a)" d="m57.103 3.985-.98-.566V2.1a.094.094 0 1 0-.188 0v.129l-.363.21-.476.275v-.97l.84-.485v.116a.094.094 0 0 0 .187 0v-.28a.093.093 0 0 0-.012-.043l-.003-.005a.095.095 0 0 0-.01-.013l-.004-.005a.093.093 0 0 0-.018-.013L55.05.423a.094.094 0 0 0-.094 0l-1.027.593a.094.094 0 0 0-.047.081v2.214l-.886-.511-.45-.26a.094.094 0 0 0-.095.162l.31.179-.84.484-.839-.484.84-.485.176.102a.094.094 0 1 0 .094-.163l-.223-.129a.094.094 0 0 0-.094 0l-1.027.593a.094.094 0 0 0-.047.082v1.186a.094.094 0 0 0 .047.08l.656.38.371.214.389.225.638.368.231.133a.094.094 0 1 0 .094-.162l-.184-.106v-.97l.84.485v.97l-.288-.167a.094.094 0 0 0-.094.163l.428.247a.094.094 0 0 0 .094 0l.98-.566.98.566a.093.093 0 0 0 .047.013.093.093 0 0 0 .047-.013l.822-.474.205-.119a.094.094 0 0 0 .047-.081V4.067a.094.094 0 0 0-.047-.082zm-5.088.62v-.969l.84.485v.97l-.487-.282Zm.933-.647-.84-.484.84-.485.84.485zm1.96-1.244-.84-.485v-.97l.84.485zm.188.219.84-.485v.97l-.84.484zm0 1.297.84.484v.97l-.84-.485zm-1.027-.813v-.97l.84.486v.969l-.456-.263zm2.054 2.266v-.97l.84-.484v.97l-.217.124zm-.094-1.132-.84-.484.84-.485.84.485zM55.002.612l.84.485-.84.485-.84-.485Zm-3.175 3.885-.84-.485v-.969l.84.485zm1.308-.43.842-.486.435.251.404.234-.841.485zm.934.647.84-.485v.97l-.84.484zm2.054-3.05v.143a.094.094 0 0 1-.188 0v-.144a.094.094 0 0 1 .188 0z" style="fill:url(#prefix__a);stroke-width:.0535868"/><g style="fill:#000"><path fill="none" d="M63.5 0h6.35v6.35H63.5Zm0 0h6.35v6.35H63.5Z"/><path d="m1 9 2 2c4.97-4.97 13.03-4.97 18 0l2-2C16.93 2.93 7.08 2.93 1 9Zm8 8 3 3 3-3a4.237 4.237 0 0 0-6 0zm-4-4 2 2a7.074 7.074 0 0 1 10 0l2-2C15.14 9.14 8.87 9.14 5 13Z" style="fill:#000;fill-opacity:1" transform="translate(63.5) scale(.26458)"/></g><path d="M71.432.317c-.848 0-1.53.682-1.53 1.53v.01c0 .848.682 1.53 1.53 1.53h3.186c.848 0 1.53-.682 1.53-1.53v-.01c0-.848-.682-1.53-1.53-1.53zm.006.16h3.175c.76 0 1.375.614 1.375 1.375s-.614 1.376-1.375 1.376h-3.175a1.374 1.374 0 0 1-1.376-1.376c0-.761.614-1.376 1.376-1.376z" style="color:#000;fill:#327ae7;stroke-width:.105833;stroke-linecap:round;stroke-linejoin:round;-inkscape-stroke:none"/><path d="M278.002 3.625v6.754a.621.621 0 0 0 .893.553l6.761-3.373a.621.621 0 0 0 0-1.114l-6.761-3.38c-.436-.182-.89.11-.893.56zm1.557.914 4.222 2.111a.388.388 0 0 1 0 .696l-4.222 2.111a.388.388 0 0 1-.56-.348V4.887a.388.388 0 0 1 .56-.348z" style="color:#000;fill:#327ae7;stroke-width:1.2419;stroke-linecap:round;stroke-linejoin:round;-inkscape-stroke:none" transform="scale(.26458)"/><path d="M269 3c-.554 0-1 .446-1 1v6c0 .554.446 1 1 1h6c.554 0 1-.446 1-1V4c0-.554-.446-1-1-1zm1 1h4c.554 0 1 .446 1 1v4c0 .554-.446 1-1 1h-4c-.554 0-1-.446-1-1V5c0-.554.446-1 1-1z" style="fill:#327ae7;fill-opacity:1;stroke:none;stroke-width:.464893;stroke-linecap:round;stroke-linejoin:round;stroke-miterlimit:4;stroke-dasharray:none;stroke-opacity:1" transform="scale(.26458)"/><path d="M270.95 5a1 1 0 0 0-.95 1v1h1.5V5h-.551zm1.55 0v1h1.5c0-.554-.446-1-1-1zm0 2v2h.5c.554 0 1-.446 1-1V7ZM270 8c0 .554.446 1 1 1h.5V8Z" style="fill:#327ae7;fill-opacity:1;stroke:none;stroke-width:.487559;stroke-linecap:round;stroke-linejoin:round;stroke-miterlimit:4;stroke-dasharray:none;stroke-opacity:1" transform="scale(.26458)"/><path d="M281.475 14a.5.5 0 0 0-.475.5v.5c-1.108 0-2 .892-2 2v2h-.047l-.953.953v.094a.95.95 0 0 0 .953.953h1.131c.205.584.76 1 1.416 1 .656 0 1.211-.416 1.416-1h1.13a.951.951 0 0 0 .954-.953v-.094l-.953-.953H284v-2c0-1.108-.892-2-2-2v-.5c0-.277-.223-.5-.5-.5h-.025zM281 16h1c.554 0 1 .446 1 1v2c0 .554-.446 1-1 1h-1c-.554 0-1-.446-1-1v-2c0-.554.446-1 1-1z" style="color:#000;fill:#000;stroke-width:1.5;stroke-linecap:round;stroke-linejoin:round;-inkscape-stroke:none" transform="scale(.26458)"/><rect width=".529" height=".265" x="72.76" y="2.117" ry=".132" style="fill:#327ae7;fill-opacity:1;stroke:none;stroke-width:.396875;stroke-linecap:round;stroke-linejoin:round;stroke-opacity:1"/><rect width=".529" height=".265" x="72.76" y="1.588" ry=".132" style="fill:#327ae7;fill-opacity:1;stroke:none;stroke-width:.396875;stroke-linecap:round;stroke-linejoin:round;stroke-opacity:1"/><rect width=".529" height=".265" x="72.76" y="1.058" ry=".132" style="fill:#327ae7;fill-opacity:1;stroke:none;stroke-width:.396875;stroke-linecap:round;stroke-linejoin:round;stroke-opacity:1"/><path d="M72.502 5.2a.31.31 0 0 0-.208.082l-.758-.441a.349.349 0 0 0 .01-.074.349.349 0 0 0-.01-.075l.75-.437a.317.317 0 0 0 .535-.232.318.318 0 1 0-.628.074l-.749.437a.317.317 0 0 0-.536.233.318.318 0 0 0 .536.232l.757.442a.31.31 0 1 0 .302-.241z" style="fill:#000;stroke-width:.106275"/><g transform="translate(0 6.35)"><path d="M71.432.317c-.848 0-1.53.682-1.53 1.53v.01c0 .848.682 1.53 1.53 1.53h3.186c.848 0 1.53-.682 1.53-1.53v-.01c0-.848-.682-1.53-1.53-1.53zm.006.16h3.175c.76 0 1.375.614 1.375 1.375s-.614 1.376-1.375 1.376h-3.175a1.374 1.374 0 0 1-1.376-1.376c0-.761.614-1.376 1.376-1.376z" style="color:#000;fill:#327ae7;stroke-width:.105833;stroke-linecap:round;stroke-linejoin:round;-inkscape-stroke:none"/><path d="M269 3c-.554 0-1 .446-1 1v6c0 .554.446 1 1 1h6c.554 0 1-.446 1-1V4c0-.554-.446-1-1-1zm1 1h4c.554 0 1 .446 1 1v4c0 .554-.446 1-1 1h-4c-.554 0-1-.446-1-1V5c0-.554.446-1 1-1z" style="fill:#327ae7;fill-opacity:1;stroke:none;stroke-width:.464893;stroke-linecap:round;stroke-linejoin:round;stroke-miterlimit:4;stroke-dasharray:none;stroke-opacity:1" transform="scale(.26458)"/><path d="M269 3c-.554 0-1 .446-1 1v6c0 .554.446 1 1 1h6c.554 0 1-.446 1-1V4c0-.554-.446-1-1-1zm1 1h4c.554 0 1 .446 1 1v4c0 .554-.446 1-1 1h-4c-.554 0-1-.446-1-1V5c0-.554.446-1 1-1z" style="fill:#327ae7;fill-opacity:1;stroke:none;stroke-width:.464893;stroke-linecap:round;stroke-linejoin:round;stroke-miterlimit:4;stroke-dasharray:none;stroke-opacity:1" transform="translate(20.373 .463) scale(.19844)"/><path d="M70.8 3.56a.3.3 0 0 0-.3.301v1.803a.3.3 0 0 0 .3.3h1.804a.3.3 0 0 0 .3-.3V3.86a.3.3 0 0 0-.3-.3zm.301.301h1.202a.3.3 0 0 1 .3.3v1.202a.3.3 0 0 1-.3.3h-1.202a.3.3 0 0 1-.3-.3V4.162a.3.3 0 0 1 .3-.3z" style="fill:#327ae7;fill-opacity:1;stroke:none;stroke-width:.139688;stroke-linecap:round;stroke-linejoin:round;stroke-miterlimit:4;stroke-dasharray:none;stroke-opacity:1" transform="translate(23.071 -1.554) scale(.71513)"/><path d="M270.95 5a1 1 0 0 0-.95 1v1h1.5V5h-.551zm1.55 0v1h1.5c0-.554-.446-1-1-1zm0 2v2h.5c.554 0 1-.446 1-1V7ZM270 8c0 .554.446 1 1 1h.5V8Z" style="fill:#327ae7;fill-opacity:1;stroke:none;stroke-width:.487559;stroke-linecap:round;stroke-linejoin:round;stroke-miterlimit:4;stroke-dasharray:none;stroke-opacity:1" transform="scale(.26458)"/><path d="M281.475 14a.5.5 0 0 0-.475.5v.5c-1.108 0-2 .892-2 2v2h-.047l-.953.953v.094a.95.95 0 0 0 .953.953h1.131c.205.584.76 1 1.416 1 .656 0 1.211-.416 1.416-1h1.13a.951.951 0 0 0 .954-.953v-.094l-.953-.953H284v-2c0-1.108-.892-2-2-2v-.5c0-.277-.223-.5-.5-.5h-.025zM281 16h1c.554 0 1 .446 1 1v2c0 .554-.446 1-1 1h-1c-.554 0-1-.446-1-1v-2c0-.554.446-1 1-1z" style="color:#000;fill:#000;stroke-width:1.5;stroke-linecap:round;stroke-linejoin:round;-inkscape-stroke:none" transform="scale(.26458)"/><rect width=".529" height=".265" x="72.76" y="2.117" ry=".132" style="fill:#327ae7;fill-opacity:1;stroke:none;stroke-width:.396875;stroke-linecap:round;stroke-linejoin:round;stroke-opacity:1"/><rect width=".529" height=".265" x="72.76" y="1.588" ry=".132" style="fill:#327ae7;fill-opacity:1;stroke:none;stroke-width:.396875;stroke-linecap:round;stroke-linejoin:round;stroke-opacity:1"/><rect width=".529" height=".265" x="72.76" y="1.058" ry=".132" style="fill:#327ae7;fill-opacity:1;stroke:none;stroke-width:.396875;stroke-linecap:round;stroke-linejoin:round;stroke-opacity:1"/><path d="M72.502 5.2a.31.31 0 0 0-.208.082l-.758-.441a.349.349 0 0 0 .01-.074.349.349 0 0 0-.01-.075l.75-.437a.317.317 0 0 0 .535-.232.318.318 0 1 0-.628.074l-.749.437a.317.317 0 0 0-.536.233.318.318 0 0 0 .536.232l.757.442a.31.31 0 1 0 .302-.241z" style="fill:#000;stroke-width:.106275"/></g><g style="fill:#000"><path fill="none" d="M38 0h6.35v6.35H38Zm0 0h6.35v6.35H38Z"/><g style="font-size:4.66198px;line-height:1.25;font-family:'Open Sans';-inkscape-font-specification:'Open Sans';stroke-width:.11655"><path d="M162.041 10.363c-.326 0-.638.021-.934.065l-3.718 3.718a7.438 7.438 0 0 0-.106 1.293c0 1.584.419 2.822 1.256 3.717.737.788 1.727 1.228 2.967 1.323.177.245.314.457.406.638.12.235.18.427.18.576 0 .23-.094.411-.283.543-.184.132-.441.198-.774.198-.206 0-.43-.025-.672-.077a5.217 5.217 0 0 1-.748-.224v1.342c.304.074.598.13.885.164.293.04.578.06.854.06.728 0 1.267-.132 1.617-.396.355-.258.533-.66.533-1.205 0-.27-.082-.556-.242-.86a4.136 4.136 0 0 0-.533-.775 5.99 5.99 0 0 0 .869-.154 5.19 5.19 0 0 0 1.369-.551v-2.315c-.379.333-.78.584-1.205.75-.425.161-.88.24-1.367.24-.82 0-1.453-.259-1.895-.775-.442-.516-.662-1.255-.662-2.219 0-.963.22-1.706.662-2.228.442-.522 1.074-.783 1.895-.783.47 0 .923.085 1.359.258.442.166.846.407 1.213.722v-2.304a6.361 6.361 0 0 0-1.438-.56 6.045 6.045 0 0 0-1.488-.18z" aria-label="ç" style="font-weight:700;font-family:monospace;-inkscape-font-specification:'monospace Bold';stroke-width:.440504" transform="translate(9.947 .84) scale(.19844)"/></g><g style="font-size:4.66198px;line-height:1.25;font-family:'Open Sans';-inkscape-font-specification:'Open Sans';stroke-width:.11655"><path d="M39.12.24V.8h.537V.24Zm.899 0V.8h.537V.24Zm-.187.997c-.17 0-.33.015-.482.044a2.302 2.302 0 0 0-.449.134v.569c.162-.088.318-.152.467-.191.15-.041.305-.062.464-.062.152 0 .266.028.344.084a.277.277 0 0 1 .118.244v.111h-.462c-.403 0-.702.072-.894.214-.193.141-.29.36-.29.658 0 .275.08.49.242.643.162.153.388.229.678.229.152 0 .29-.03.417-.091a.803.803 0 0 0 .31-.26v.191l.662-.662v-.698c0-.434-.085-.736-.253-.904-.167-.169-.458-.253-.872-.253Zm.15 1.414h.312v.045c0 .239-.048.425-.146.558a.48.48 0 0 1-.41.198.375.375 0 0 1-.277-.102.372.372 0 0 1-.102-.276c0-.155.049-.264.148-.327.092-.06.25-.092.475-.096z" aria-label="ä" style="font-weight:700;font-family:monospace;-inkscape-font-specification:'monospace Bold';stroke-width:.11655" transform="matrix(.75 0 0 .75 10.405 .59)"/></g><path d="M41.54.992v.133h.528V.992Z" style="color:#000;fill:#000;-inkscape-stroke:none" transform="matrix(.75 0 0 .75 10.867 .578)"/><path d="m40.929 1.058.915-.529v1.059Z" style="color:#000;fill:#000;fill-rule:evenodd;stroke-width:.105834pt;-inkscape-stroke:none" transform="matrix(.75 0 0 .75 10.867 .578)"/><path d="m41.914.406-1.127.653.108.06 1.02.59zm-.14.244v.817l-.704-.408Z" style="color:#000;fill:#000;fill-rule:evenodd;-inkscape-stroke:none" transform="matrix(.75 0 0 .75 10.867 .578)"/><path d="M17.34 2.538a1 1 0 0 0-.996 1.004 1 1 0 0 0 .996.996c1.278 0 2.25.413 2.923 1.086.673.672 1.078 1.638 1.078 2.915a1 1 0 0 0 1.004 1.004 1 1 0 0 0 .997-1.004c0-1.722-.592-3.256-1.669-4.333-1.077-1.077-2.61-1.668-4.333-1.668z" style="color:#000;fill:#000;stroke-width:3.77953;stroke-linecap:round;-inkscape-stroke:none" transform="translate(38.58 .669) scale(.19844)"/><path d="M41.54.992v.133h.528V.992Z" style="color:#000;fill:#000;-inkscape-stroke:none" transform="matrix(-.75 0 0 -.75 71.483 5.885)"/><path d="m40.929 1.058.915-.529v1.059Z" style="color:#000;fill:#000;fill-rule:evenodd;stroke-width:.105834pt;-inkscape-stroke:none" transform="matrix(-.75 0 0 -.75 71.483 5.885)"/><path d="m41.914.406-1.127.653.108.06 1.02.59zm-.14.244v.817l-.704-.408Z" style="color:#000;fill:#000;fill-rule:evenodd;-inkscape-stroke:none" transform="matrix(-.75 0 0 -.75 71.483 5.885)"/><path d="M41.54.793a.265.265 0 0 0-.265.266.265.265 0 0 0 .264.263c.338 0 .595.11.773.287.179.178.286.434.286.772a.265.265 0 0 0 .265.265.265.265 0 0 0 .264-.265c0-.456-.156-.862-.441-1.147C42.4.95 41.995.793 41.539.793Z" style="color:#000;fill:#000;stroke-linecap:round;-inkscape-stroke:none" transform="matrix(-.75 0 0 -.75 71.483 5.885)"/></g><g style="fill:#000"><path fill="none" d="M31.75 6.35h6.35v6.35h-6.35Z"/><g style="fill:#000"><path fill="none" d="M31.75 6.35h6.35v6.35h-6.35Z"/><path d="M6 6h12v12H6Z" style="fill:#327ae7;fill-opacity:1" transform="translate(31.75 6.35) scale(.26458)"/></g></g><path d="M0 0h24v24H0Z" style="fill:none" transform="translate(82.55) scale(.26458)"/><g style="fill:#000;fill-opacity:1"><g style="fill:#000;fill-opacity:1"><path d="M325.344 9.588a1 1 0 0 0-.637.29 1 1 0 0 0 0 1.415l2.121 2.121-1.414 1.414-2.088-2.086a1 1 0 0 0-.033-.035 1 1 0 0 0-1.414 0 1 1 0 0 0 0 1.414L324 16.242l-1.414 1.414L324 19.07a5 5 0 0 0 6.283.627l1.488 1.489.006.005a1 1 0 0 0 0 .002 1 1 0 0 0 1.416 0 1 1 0 0 0 0-1.416l-1.488-1.486A5 5 0 0 0 331.07 12l-1.414-1.414L328.242 12l-2.12-2.121a1 1 0 0 0-.778-.291z" style="fill:#000;fill-opacity:1;stroke:none;stroke-width:2;stroke-linecap:round;stroke-linejoin:round;paint-order:fill markers stroke" transform="scale(.26458)"/></g><path d="M315.443 2.518a1 1 0 0 0-.634.289 1 1 0 0 0 0 1.414v.002l1.492 1.492A5 5 0 0 0 316.93 12l1.414 1.414 7.07-7.07L324 4.93a5 5 0 0 0-6.285-.63l-1.46-1.456a1 1 0 0 0-.017-.02l-.015-.015a1 1 0 0 1 0-.002 1 1 0 0 0-.78-.29z" style="fill:#000;fill-opacity:1;stroke:none;stroke-width:2;stroke-linecap:round;stroke-linejoin:round;paint-order:fill markers stroke" transform="scale(.26458)"/></g><g style="fill:#000"><path fill="none" d="M0 0h24v24H0Z" style="fill:#000" transform="translate(88.9) scale(.26458)"/><path d="M225.115-2.045a9.984 9.984 0 0 0 2.26-6.33c0-5.52-4.48-10-10-10s-10 4.48-10 10 4.48 10 10 10a9.984 9.984 0 0 0 7.11-2.97c.03-.03.05-.06.07-.08.2-.2.39-.41.56-.62zm-7.74 1.67c-4.41 0-8-3.59-8-8s3.59-8 8-8 8 3.59 8 8c0 1.85-.63 3.54-1.69 4.9l-1.43-1.43c.69-.98 1.1-2.17 1.1-3.46 0-3.31-2.69-6-6-6s-6 2.69-6 6 2.69 6 6 6c1.3 0 2.51-.42 3.49-1.13l1.42 1.42a7.822 7.822 0 0 1-4.89 1.7zm1.92-7.49c.17-.66.02-1.38-.49-1.9l-.02-.02c-.77-.77-2-.78-2.78-.04-.01.01-.03.02-.05.04-.78.78-.78 2.05 0 2.83l.02.02c.52.51 1.25.67 1.91.49l1.51 1.51c-.6.36-1.29.58-2.04.58-2.21 0-4-1.79-4-4s1.79-4 4-4 4 1.79 4 4c0 .73-.21 1.41-.56 2z" style="fill:#000;fill-opacity:1" transform="translate(34.561 5.39) scale(.26458)"/></g><g style="fill:#000;fill-opacity:1"><path fill="none" d="M57.15 0h6.35v6.35h-6.35Z"/><path d="M61.119 1.852V2.91h.264v.53h-.793V1.323h.529L60.325.265l-.794 1.058h.53V3.44h-.794v-.548a.58.58 0 0 0 .317-.51.584.584 0 0 0-.582-.583.584.584 0 0 0-.582.582.58.58 0 0 0 .317.51v.549c0 .293.236.529.53.529h.793v.807a.582.582 0 1 0 .53 0v-.807h.793c.294 0 .53-.236.53-.53V2.91h.264V1.852Z"/></g><g style="fill:#000;fill-opacity:1"><path fill="none" d="M95.25 0h6.35v6.35h-6.35Z"/><path d="M99.936 2.04 98.425.53h-.265v2.007l-1.214-1.214-.373.373 1.479 1.479-1.48 1.479.374.373 1.214-1.214V5.82h.265l1.51-1.51-1.137-1.136Zm-1.246-.497.497.497-.497.497Zm.497 2.767-.497.497v-.994z"/></g><g style="fill:#000"><g style="fill:#000"><path fill="none" d="M0 0h24v24H0Z" style="fill:none" transform="translate(82.55 6.35) scale(.26458)"/></g><g style="fill:#327ae7;fill-opacity:1"><path d="M315.443 26.518a1 1 0 0 0-.634.289 1 1 0 0 0 0 1.416l3.613 3.613a5 5 0 0 0 .629 6.285l1.414 1.414 7.07-7.07-1.414-1.414a5 5 0 0 0-6.285-.63l-3.613-3.614a1 1 0 0 0-.78-.29zm12.8 6.654-7.071 7.07 1.414 1.414a5 5 0 0 0 6.285.63l2.897 2.896.01.01a1 1 0 0 0 0 .001 1 1 0 0 0 1.416 0 1 1 0 0 0 0-1.416l-2.903-2.9a5 5 0 0 0-.635-6.291z" style="fill:#327ae7;fill-opacity:1;stroke:none;stroke-width:2;stroke-linecap:round;stroke-linejoin:round;paint-order:fill markers stroke" transform="scale(.26458)"/></g></g><g style="fill:#000"><path fill="none" d="M101.6 6.35h6.35v6.35h-6.35Z"/><path d="M106.664 9.774a1.872 1.872 0 0 0-.003-.498l.538-.418a.13.13 0 0 0 .031-.161l-.508-.879c-.031-.058-.098-.076-.156-.058l-.632.254a1.87 1.87 0 0 0-.429-.248l-.095-.673a.128.128 0 0 0-.127-.108h-1.016a.125.125 0 0 0-.124.108l-.096.673a1.91 1.91 0 0 0-.428.248l-.633-.254a.126.126 0 0 0-.156.058l-.505.879a.12.12 0 0 0 .032.161l.537.418a1.553 1.553 0 0 0-.005.498l-.538.418a.13.13 0 0 0-.031.161l.508.879c.031.058.098.076.156.058l.632-.254c.132.1.273.185.429.248l.095.673a.13.13 0 0 0 .127.108h1.016a.123.123 0 0 0 .124-.108l.096-.673c.156-.063.299-.148.428-.248l.633.254c.058.02.124 0 .156-.058l.508-.879c.031-.058.018-.124-.032-.161zm-1.889.704a.955.955 0 0 1-.953-.953c0-.524.43-.952.953-.952.524 0 .952.428.952.952a.955.955 0 0 1-.952.953z"/></g><g style="fill:#000"><path fill="none" d="M107.95 6.35h6.35v6.35h-6.35z"/><path d="M109.802 11.642h1.058a.53.53 0 0 1-.529.529.53.53 0 0 1-.529-.53Zm-.53-.265h2.118v-.53h-2.117Zm3.044-2.513c0 1.01-.704 1.55-.998 1.72h-1.974c-.293-.17-.997-.71-.997-1.72a1.985 1.985 0 0 1 3.969 0zm1.288-.564-.362.167.362.166.167.363.167-.363.362-.166-.362-.167-.167-.362Zm-.627-.362.249-.546.545-.248-.545-.249-.249-.545-.249.545-.545.249.545.248Z"/></g><g style="fill:#000"><path fill="none" d="M107.95 0h6.35v6.35h-6.35z"/><path d="M109.802 5.292h1.058a.53.53 0 0 1-.529.529.53.53 0 0 1-.529-.53Zm-.53-.265h2.118v-.53h-2.117Zm3.044-2.513c0 1.01-.704 1.55-.998 1.72h-1.974c-.293-.17-.997-.71-.997-1.72a1.985 1.985 0 0 1 3.969 0zm-.53 0c0-.802-.653-1.456-1.455-1.456-.801 0-1.455.654-1.455 1.456 0 .653.394 1.029.622 1.19h1.667c.227-.161.621-.537.621-1.19Zm1.818-.564-.362.167.362.166.167.363.167-.363.362-.166-.362-.167-.167-.363Zm-.627-.363.249-.545.545-.248-.545-.249-.249-.545-.249.545-.545.249.545.248Z"/></g><g style="fill:#000"><path fill="none" d="M114.3 0h6.35v6.35h-6.35Z"/><path d="M117.475 1.058V.265l-1.058 1.058 1.058 1.058v-.794a1.589 1.589 0 0 1 1.402 2.329l.387.386a2.116 2.116 0 0 0-1.789-3.244Zm0 3.704a1.589 1.589 0 0 1-1.402-2.328l-.387-.386a2.116 2.116 0 0 0 1.789 3.244v.793l1.058-1.058-1.058-1.058z"/></g><path fill="none" d="M32.556 25.158h6.35v6.35h-6.35z" style="stroke-width:.264583"/><path fill="none" d="M0 0h24v24H0Z" style="fill:#000" transform="translate(44.45 25.4) scale(.26458)"/><g style="fill:#000"><path fill="none" d="M120.65 6.35H127v6.35h-6.35Zm0 0H127v6.35h-6.35Z"/><path d="M210.85 99.453c-1.1 0-2 .9-2 2v14c0 1.1.9 2 2 2h14c1.1 0 2-.9 2-2v-2h2v-2h-2v-2h2v-2h-2v-2h2v-2h-2v-2c0-1.1-.9-2-2-2zm5 4.5h4v4h3l-5 5-5-5h3z" style="fill:#000;fill-opacity:1" transform="translate(65.921 -19.17) scale(.26458)"/></g><path fill="none" d="M0 0h24v24H0Z" style="fill:#000" transform="translate(54.729 25.52) scale(.26458)"/><g style="fill:#000"><path fill="none" d="M127 0h6.35v6.35H127Z"/><path d="M127.265 5.556h5.82L130.175.53Zm3.175-.794h-.53v-.529h.53zm0-1.058h-.53V2.646h.53z"/></g><path fill="none" d="M0 0h6.35v6.35H0Z" style="stroke-width:.264583"/><path d="M4.445 4.036a.616.616 0 0 0-.415.163l-1.51-.878a.693.693 0 0 0 .02-.148c0-.05-.008-.1-.02-.148l1.493-.87A.632.632 0 0 0 5.08 1.69a.634.634 0 1 0-1.251.148l-1.492.87a.632.632 0 0 0-1.067.464.634.634 0 0 0 1.067.463l1.507.881a.619.619 0 1 0 .601-.48z" style="fill:#000;stroke-width:.211667"/><path d="M12 5.99 19.53 19H4.47L12 5.99M12 2 1 21h22zm1 14h-2v2h2zm0-6h-2v4h2z" style="fill:#000" transform="translate(127 6.35) scale(.26458)"/><path fill="none" d="M0 0h24v24H0Z" style="fill:#000" transform="translate(127 6.35) scale(.26458)"/><path d="M146.05 3.175a3.175 3.175 0 0 1-3.175 3.175 3.175 3.175 0 0 1-3.175-3.175A3.175 3.175 0 0 1 142.875 0a3.175 3.175 0 0 1 3.175 3.175Z" style="color:#000;fill:#e8f0fc;fill-opacity:.0290988;stroke-width:1.05833;stroke-linecap:round;stroke-linejoin:round;-inkscape-stroke:none;paint-order:fill markers stroke"/><path d="M540 6c-2.21 0-4 1.79-4 4s1.79 4 4 4 4-1.79 4-4-1.79-4-4-4zm0 10c-2.67 0-8 1.34-8 4v.938A12 12 0 0 0 533.377 22h13.246A12 12 0 0 0 548 20.937V20c0-2.66-5.33-4-8-4z" style="color:#000;fill:url(#prefix__b);fill-opacity:1;stroke-width:3.99999;stroke-linecap:round;stroke-linejoin:round;-inkscape-stroke:none;paint-order:fill markers stroke" transform="scale(.26458)"/><path d="M142.875 0a3.175 3.175 0 0 0-3.175 3.175 3.175 3.175 0 0 0 3.175 3.175 3.175 3.175 0 0 0 3.175-3.175A3.175 3.175 0 0 0 142.875 0Zm0 .53a2.64 2.64 0 0 1 2.646 2.646 2.637 2.637 0 0 1-2.646 2.644 2.637 2.637 0 0 1-2.646-2.644 2.64 2.64 0 0 1 2.646-2.647z" style="color:#000;fill:url(#prefix__c);fill-opacity:1;stroke-width:1.05833;stroke-linecap:round;stroke-linejoin:round;-inkscape-stroke:none;paint-order:fill markers stroke"/><path fill="none" d="M139.7 0h6.35v6.35h-6.35z" style="stroke-width:.264583"/><g style="fill:#000"><path fill="none" d="M146.05 0h6.35v6.35h-6.35Z"/><path d="M151.077 3.44h-1.587v1.587h-.53V3.44h-1.587v-.53h1.587V1.323h.53V2.91h1.587z"/></g><g style="fill:#000"><path fill="none" d="M158.75 6.35h6.35v6.35h-6.35Z"/><path d="M159.544 10.914v.992h.992l2.926-2.926-.992-.992Zm4.686-2.701a.263.263 0 0 0 0-.373l-.62-.62a.263.263 0 0 0-.373 0l-.484.485.992.992z"/></g><g style="fill:#000"><path fill="none" d="M158.75 0h6.35v6.35h-6.35Z"/><path d="m162.47 2.387.243.243-2.397 2.397h-.243v-.243l2.397-2.397m.953-1.593a.265.265 0 0 0-.186.076l-.484.485.992.992.485-.484a.263.263 0 0 0 0-.373l-.62-.62a.26.26 0 0 0-.187-.076Zm-.953.844-2.926 2.926v.992h.992l2.926-2.926Z"/></g><g style="fill:#000"><path fill="none" d="M101.6 0h6.35v6.35h-6.35Z"/><path d="M106.74 3.434c.011-.084.02-.169.02-.259s-.009-.175-.02-.26l.56-.436a.133.133 0 0 0 .03-.17l-.528-.915a.132.132 0 0 0-.162-.058l-.659.265a1.933 1.933 0 0 0-.447-.26l-.1-.7a.129.129 0 0 0-.13-.112h-1.058a.129.129 0 0 0-.13.111l-.1.701a2.08 2.08 0 0 0-.448.26l-.658-.265a.15.15 0 0 0-.048-.008.131.131 0 0 0-.114.066l-.529.916a.13.13 0 0 0 .032.17l.558.436c-.01.084-.018.172-.018.259 0 .087.008.175.018.26l-.558.436a.133.133 0 0 0-.032.17l.53.915a.132.132 0 0 0 .16.058l.66-.265c.137.106.285.193.447.26l.1.7a.129.129 0 0 0 .13.112h1.058a.129.129 0 0 0 .13-.111l.1-.701c.162-.067.31-.157.447-.26l.66.265a.15.15 0 0 0 .047.008c.045 0 .09-.024.114-.066l.529-.916a.133.133 0 0 0-.032-.17zm-.523-.452a1.414 1.414 0 0 1 0 .386l-.037.3.235.184.286.223-.185.32-.336-.135-.275-.111-.238.18a1.55 1.55 0 0 1-.331.193l-.28.113-.043.3-.053.357h-.37l-.05-.358-.043-.299-.28-.113a1.501 1.501 0 0 1-.326-.188l-.24-.185-.28.113-.337.135-.185-.32.286-.222.235-.185-.037-.3a2.128 2.128 0 0 1-.013-.195c0-.053.005-.114.013-.193l.037-.3-.235-.184-.286-.223.185-.32.336.135.275.111.238-.18a1.55 1.55 0 0 1 .331-.193l.28-.114.043-.298.053-.358h.368l.05.358.042.298.28.114c.114.048.22.109.326.188l.24.185.281-.113.336-.135.186.32-.284.225-.235.185zm-1.442-.865a1.058 1.058 0 1 0 0 2.116 1.058 1.058 0 0 0 0-2.116zm0 1.587a.53.53 0 0 1-.53-.529.53.53 0 0 1 .53-.53.53.53 0 0 1 .53.53.53.53 0 0 1-.53.53z"/></g><g style="fill:#000"><path fill="none" d="M152.4 0h6.35v6.35h-6.35Z"/><path d="M157.427 3.44h-3.704v-.53h3.704z"/></g><g style="fill:#000"><path fill="none" d="M165.1 0h6.35v6.35h-6.35Z"/><path d="M165.63 5.292h5.29V4.233h-5.29Zm.528-.794h.53v.53h-.53Zm-.529-3.44v1.059h5.292V1.058Zm1.058.794h-.529v-.53h.53Zm-1.058 1.852h5.292V2.646h-5.292Zm.53-.794h.528v.53h-.529Z"/></g><path fill="none" d="M203.684-15.503h6.35v6.35h-6.35z" style="stroke-width:.264583"/><g style="fill:#000"><path fill="none" d="M177.8 0h6.35v6.35h-6.35Z"/><path d="M183.356 1.058h-4.762a.529.529 0 0 0-.53.53v3.174c0 .292.239.53.53.53h4.762a.53.53 0 0 0 .53-.53V1.587a.529.529 0 0 0-.53-.529Zm0 3.704h-4.762V1.587h4.762Zm-3.175-2.645v2.116l1.852-1.058z"/></g><g style="fill:#000"><path fill="none" d="M171.45 0h6.35v6.35h-6.35z"/><path d="M176.477 3.44h-3.704a.53.53 0 0 0-.53.529v1.058c0 .291.239.53.53.53h3.704a.53.53 0 0 0 .53-.53V3.97a.53.53 0 0 0-.53-.53zm0-2.646h-3.704a.53.53 0 0 0-.53.529V2.38c0 .291.239.53.53.53h3.704a.53.53 0 0 0 .53-.53V1.323a.53.53 0 0 0-.53-.53Z"/></g><g style="fill:#000"><path fill="none" d="M171.45 6.35h6.35v6.35h-6.35z"/><path d="M172.773 9.26h1.058a.53.53 0 0 0 .53-.529V7.673a.53.53 0 0 0-.53-.53h-1.058a.53.53 0 0 0-.53.53V8.73c0 .291.239.53.53.53zm0 2.646h1.058a.53.53 0 0 0 .53-.529V10.32a.53.53 0 0 0-.53-.53h-1.058a.53.53 0 0 0-.53.53v1.058c0 .291.239.53.53.53zm2.117-4.233V8.73c0 .291.238.53.529.53h1.058a.53.53 0 0 0 .53-.53V7.673a.53.53 0 0 0-.53-.53h-1.058a.53.53 0 0 0-.53.53zm.529 4.233h1.058a.53.53 0 0 0 .53-.529V10.32a.53.53 0 0 0-.53-.53h-1.058a.53.53 0 0 0-.53.53v1.058c0 .291.239.53.53.53z"/></g><g style="fill:#000"><path fill="none" d="M184.15 0h6.35v6.35h-6.35Z"/><path d="m189.97 1.83-.372-.372-.754.85a2.848 2.848 0 0 0-2.151-.985c-.765 0-1.466.307-2.014.794l.376.375a2.484 2.484 0 0 1 1.638-.64c.725 0 1.346.333 1.79.857l-.761.858-1.058-1.059-1.985 1.987.397.397 1.588-1.59 1.058 1.058 1.071-1.204c.199.358.331.768.381 1.204h.532a3.742 3.742 0 0 0-.54-1.624z"/></g><g style="fill:#000"><path fill="none" d="M203.2 0h6.35v6.35h-6.35z"/><path d="m208.013 3.291-.857-.428c.34-.265.56-.678.56-1.143 0-.802-.653-1.455-1.455-1.455a1.454 1.454 0 0 0-.661 2.749v.862c-.57-.122-.535-.116-.598-.116a.525.525 0 0 0-.373.156l-.37.376 1.346 1.346a.612.612 0 0 0 .437.183h1.666c.26 0 .48-.185.522-.442l.211-1.246a.792.792 0 0 0-.428-.842zm-.093.754-.212 1.247h-1.666a.098.098 0 0 1-.064-.027l-.974-.973 1.125.235V1.72a.132.132 0 1 1 .265 0v1.587h.465l.916.458a.266.266 0 0 1 .145.28zm-2.585-2.325a.927.927 0 0 1 1.852 0c0 .251-.1.479-.264.645V1.72a.662.662 0 0 0-1.323 0v.645a.917.917 0 0 1-.265-.645Z"/></g><g style="fill:#000"><path fill="none" d="M190.5 0h6.35v6.35h-6.35Z"/><path d="M194.998 1.587h-2.646a1.589 1.589 0 0 0 0 3.175h2.646a1.588 1.588 0 0 0 0-3.175zm0 2.646h-2.646a1.058 1.058 0 1 1 0-2.116h2.646a1.058 1.058 0 1 1 0 2.116zm0-1.852a.793.793 0 1 0 0 1.588.793.793 0 1 0 0-1.588z"/></g><g style="fill:#000"><path fill="none" d="M203.2 6.35h6.35v6.35h-6.35Z"/><path d="m207.608 7.546.749.749-.749.748-.749-.748.749-.75m-2.027.128V8.73h-1.058V7.673h1.058m2.646 2.646v1.058h-1.058V10.32h1.058m-2.646 0v1.058h-1.058V10.32h1.058m2.027-3.522-1.498 1.495 1.498 1.498 1.497-1.498Zm-1.498.347h-2.116V9.26h2.116zm2.646 2.646h-2.116v2.116h2.116zm-2.646 0h-2.116v2.116h2.116z"/></g><g style="fill:#000"><path fill="none" d="M196.85 0h6.35v6.35h-6.35Z"/><path d="M199.76 4.762a.53.53 0 0 1-.529.53.53.53 0 0 1-.529-.53.53.53 0 0 1 .53-.529.53.53 0 0 1 .528.53zm-.529-2.116a.53.53 0 0 0-.529.529.53.53 0 0 0 1.058 0 .53.53 0 0 0-.529-.53zm0-1.588a.53.53 0 0 0-.529.53.53.53 0 0 0 1.058 0 .53.53 0 0 0-.529-.53Zm1.588 1.059a.53.53 0 0 0 .529-.53.53.53 0 0 0-.53-.529.53.53 0 0 0-.528.53c0 .29.238.529.529.529zm0 .529a.53.53 0 0 0-.53.529.53.53 0 0 0 1.058 0 .53.53 0 0 0-.528-.53zm0 1.587a.53.53 0 0 0-.53.53.53.53 0 0 0 1.058 0 .53.53 0 0 0-.528-.53z"/></g></svg>