<?xml version="1.0" encoding="UTF-8"?>
<svg width="20px" height="20px" viewBox="0 0 20 20" version="1.1" xmlns="http://www.w3.org/2000/svg" xmlns:xlink="http://www.w3.org/1999/xlink">
    <title>run</title>
    <g id="以此为准" stroke="none" stroke-width="1" fill="none" fill-rule="evenodd">
        <g id="SONGKE主页" transform="translate(-1383.000000, -108.000000)" fill="#FADF76" fill-rule="nonzero">
            <g id="运行" transform="translate(1377.000000, 103.000000)">
                <g id="run" transform="translate(6.000000, 5.000000)">
                    <path d="M9.99999858,19.9999616 C7.34645601,20.0070876 4.80033922,18.9523321 2.92921726,17.0707791 C1.04782156,15.1995517 -0.00690546654,12.6535038 3.5886936e-05,9.99999811 C-0.00709136391,7.34645567 1.04766415,4.80033899 2.92921726,2.92921712 C4.80033922,1.0476641 7.34645601,-0.00709136358 9.99999858,3.58869346e-05 L10.0116652,3.58869346e-05 C12.6622935,-0.00680495524 15.2055797,1.0466964 17.0749465,2.92588382 C18.0046131,3.85396712 18.7410301,4.95717633 19.2415973,6.17169311 C19.7446978,7.38519749 20.002434,8.68634036 19.9999616,9.99999811 C20.0071254,12.6537925 18.9523813,15.2001817 17.0707799,17.0716124 C15.1994677,18.952781 12.6534024,20.0072151 9.99999858,19.9999616 Z M8.51167619,5.83336228 C7.9193068,5.87177768 7.46817871,6.37976126 7.50001697,6.97252052 L7.50001697,13.0266424 C7.4677051,13.6197181 7.91896432,14.1282211 8.51167619,14.1666339 C8.69094525,14.1660118 8.86645857,14.1152053 9.01833913,14.0199684 L13.6758049,10.9833242 C13.9897073,10.7549716 14.1728204,10.3881235 14.1666346,9.99999811 C14.1722138,9.61204618 13.9888355,9.24560025 13.6749715,9.01750537 L9.01750579,5.98086119 C8.86602637,5.88531645 8.6907686,5.83421163 8.51167619,5.83336228 Z" id="形状"></path>
                </g>
            </g>
        </g>
    </g>
</svg>