<?xml version="1.0" encoding="UTF-8"?>
<svg width="30px" height="95px" viewBox="0 0 30 95" version="1.1" xmlns="http://www.w3.org/2000/svg" xmlns:xlink="http://www.w3.org/1999/xlink">
    <title>arrow2</title>
    <defs>
        <path d="M0,10.4101839 L13,10.4101839 C21.2842712,10.4101839 28,17.1259126 28,25.4101839 L28,61.6460553 C28,69.9303265 21.2842712,76.6460553 13,76.6460553 L0,76.6460553 L0,76.6460553 L0,10.4101839 Z" id="path-1"></path>
        <filter x="-71.4%" y="-30.2%" width="257.1%" height="166.4%" filterUnits="objectBoundingBox" id="filter-2">
            <feOffset dx="2" dy="2" in="SourceAlpha" result="shadowOffsetOuter1"></feOffset>
            <feGaussianBlur stdDeviation="7" in="shadowOffsetOuter1" result="shadowBlurOuter1"></feGaussianBlur>
            <feColorMatrix values="0 0 0 0 0.704039643   0 0 0 0 0.630016131   0 0 0 0 0.337286789  0 0 0 0.362562486 0" type="matrix" in="shadowBlurOuter1"></feColorMatrix>
        </filter>
    </defs>
    <g id="以此为准" stroke="none" stroke-width="1" fill="none" fill-rule="evenodd">
        <g id="arrow" transform="translate(-266.000000, -227.000000)">
            <g id="编组-14备份" transform="translate(252.000000, 227.000000)">
                <g id="arrow2" transform="translate(0.000000, 2.000000)">
                    <g id="矩形">
                        <use fill="black" fill-opacity="1" filter="url(#filter-2)" xlink:href="#path-1"></use>
                        <use fill="#FFFFFF" fill-rule="evenodd" xlink:href="#path-1"></use>
                    </g>
                    <path d="M14.7634622,4.35762537e-13 C14.6297183,0.769006866 14.56,1.55998995 14.56,2.36725661 C14.56,7.83992149 17.7641311,12.5642215 22.3987773,14.7665405 L22.399,23.657 L0,23.6573581 L0,0.00168977253 L14.7634622,4.35762537e-13 Z" id="形状结合" fill="#FFFFFF"></path>
                    <path d="M22.399,64.3451077 L22.3995143,72.2893485 C17.7644708,74.4915168 14.56,79.2160276 14.56,84.6889825 C14.56,85.8307985 14.6994777,86.9400376 14.9623247,88.0005916 L9.09494702e-13,88.0007761 L9.09494702e-13,64.3451077 L22.399,64.3451077 Z" id="形状结合" fill="#FFFFFF"></path>
                    <g id="jiantouyou" transform="translate(20.000000, 39.000000)" fill="#B3B3B3" fill-rule="nonzero">
                        <path d="M0.582375337,9 C0.416714408,9 0.306273799,8.94359008 0.195833181,8.83077023 C-0.0250480569,8.60513053 0.0301722525,8.266671 0.25105349,8.0410313 L3.78515321,4.76925578 C3.89559383,4.65643593 3.95081414,4.54361608 3.95081414,4.43079625 C3.95081414,4.3179764 3.89559383,4.20515655 3.78515321,4.0923367 L0.195833181,0.989790943 C-0.0250480569,0.764151247 -0.0802683565,0.425691713 0.140612871,0.200052027 C0.361494109,-0.0255876687 0.692815955,-0.0819975828 0.913697183,0.143642103 L4.44779692,3.24618786 C4.77911876,3.52823747 5,3.97951686 5,4.43079625 C5,4.88207563 4.83433907,5.27694509 4.50301723,5.61540462 L0.968917493,8.88718015 C0.858476874,8.94359008 0.692815955,9 0.582375337,9 L0.582375337,9 Z" id="路径" transform="translate(2.500000, 4.500000) scale(-1, 1) translate(-2.500000, -4.500000) "></path>
                    </g>
                </g>
            </g>
        </g>
    </g>
</svg>