<?xml version="1.0" encoding="UTF-8"?>
<svg width="1202px" height="938px" viewBox="0 0 1202 938" version="1.1" xmlns="http://www.w3.org/2000/svg" xmlns:xlink="http://www.w3.org/1999/xlink">
    <title>line</title>
    <g id="以此为准" stroke="none" stroke-width="1" fill="none" fill-rule="evenodd" opacity="0.9" stroke-linecap="square">
        <g id="SONGKE主页" transform="translate(-166.000000, -143.000000)" stroke="#FADF76">
            <g id="line" transform="translate(166.000000, 143.000000)">
                <g id="编组" transform="translate(0.000000, 1.000000)">
                    <g transform="translate(0.000000, 45.000000)">
                        <line x1="0.5" y1="0.5" x2="1200.5" y2="0.5" id="直线"></line>
                        <line x1="0.5" y1="184.5" x2="1200.5" y2="184.5" id="直线备份-4"></line>
                        <line x1="0.5" y1="368.5" x2="1200.5" y2="368.5" id="直线备份-8"></line>
                        <line x1="0.5" y1="551.5" x2="1200.5" y2="551.5" id="直线备份-12"></line>
                        <line x1="0.5" y1="735.5" x2="1200.5" y2="735.5" id="直线备份-16"></line>
                        <line x1="0.5" y1="92.5" x2="1200.5" y2="92.5" id="直线备份-2"></line>
                        <line x1="0.5" y1="276.5" x2="1200.5" y2="276.5" id="直线备份-5"></line>
                        <line x1="0.5" y1="460.5" x2="1200.5" y2="460.5" id="直线备份-9"></line>
                        <line x1="0.5" y1="643.5" x2="1200.5" y2="643.5" id="直线备份-13"></line>
                        <line x1="0.5" y1="827.5" x2="1200.5" y2="827.5" id="直线备份-17"></line>
                        <line x1="0.5" y1="46.5" x2="1200.5" y2="46.5" id="直线备份"></line>
                        <line x1="0.5" y1="230.5" x2="1200.5" y2="230.5" id="直线备份-6"></line>
                        <line x1="0.5" y1="414.5" x2="1200.5" y2="414.5" id="直线备份-10"></line>
                        <line x1="0.5" y1="597.5" x2="1200.5" y2="597.5" id="直线备份-14"></line>
                        <line x1="0.5" y1="781.5" x2="1200.5" y2="781.5" id="直线备份-18"></line>
                        <line x1="0.5" y1="138.5" x2="1200.5" y2="138.5" id="直线备份-3"></line>
                        <line x1="0.5" y1="322.5" x2="1200.5" y2="322.5" id="直线备份-7"></line>
                        <line x1="0.5" y1="506.5" x2="1200.5" y2="506.5" id="直线备份-11"></line>
                        <line x1="0.5" y1="689.5" x2="1200.5" y2="689.5" id="直线备份-15"></line>
                        <line x1="0.5" y1="873.5" x2="1200.5" y2="873.5" id="直线备份-19"></line>
                    </g>
                    <g transform="translate(442.104080, 468.284289) rotate(-90.000000) translate(-442.104080, -468.284289) translate(-25.895920, 31.284289)">
                        <line x1="0.389675271" y1="0.5" x2="935.610325" y2="0.5" id="直线"></line>
                        <line x1="0.389675271" y1="184.5" x2="935.610325" y2="184.5" id="直线备份-4"></line>
                        <line x1="0.389675271" y1="368.5" x2="935.610325" y2="368.5" id="直线备份-8"></line>
                        <line x1="0.389675271" y1="551.5" x2="935.610325" y2="551.5" id="直线备份-12"></line>
                        <line x1="0.389675271" y1="735.5" x2="935.610325" y2="735.5" id="直线备份-16"></line>
                        <line x1="0.389675271" y1="92.5" x2="935.610325" y2="92.5" id="直线备份-2"></line>
                        <line x1="0.389675271" y1="276.5" x2="935.610325" y2="276.5" id="直线备份-5"></line>
                        <line x1="0.389675271" y1="460.5" x2="935.610325" y2="460.5" id="直线备份-9"></line>
                        <line x1="0.389675271" y1="643.5" x2="935.610325" y2="643.5" id="直线备份-13"></line>
                        <line x1="0.389675271" y1="827.5" x2="935.610325" y2="827.5" id="直线备份-17"></line>
                        <line x1="0.389675271" y1="46.5" x2="935.610325" y2="46.5" id="直线备份"></line>
                        <line x1="0.389675271" y1="230.5" x2="935.610325" y2="230.5" id="直线备份-6"></line>
                        <line x1="0.389675271" y1="414.5" x2="935.610325" y2="414.5" id="直线备份-10"></line>
                        <line x1="0.389675271" y1="597.5" x2="935.610325" y2="597.5" id="直线备份-14"></line>
                        <line x1="0.389675271" y1="781.5" x2="935.610325" y2="781.5" id="直线备份-18"></line>
                        <line x1="0.389675271" y1="138.5" x2="935.610325" y2="138.5" id="直线备份-3"></line>
                        <line x1="0.389675271" y1="322.5" x2="935.610325" y2="322.5" id="直线备份-7"></line>
                        <line x1="0.389675271" y1="506.5" x2="935.610325" y2="506.5" id="直线备份-11"></line>
                        <line x1="0.389675271" y1="689.5" x2="935.610325" y2="689.5" id="直线备份-15"></line>
                        <line x1="0.389675271" y1="873.5" x2="935.610325" y2="873.5" id="直线备份-19"></line>
                    </g>
                    <g transform="translate(1062.604080, 468.000000) rotate(-90.000000) translate(-1062.604080, -468.000000) translate(594.604080, 329.500000)">
                        <line x1="0.389675271" y1="0.5" x2="935.610325" y2="0.5" id="直线"></line>
                        <line x1="0.389675271" y1="184.5" x2="935.610325" y2="184.5" id="直线备份-4"></line>
                        <line x1="0.389675271" y1="92.5" x2="935.610325" y2="92.5" id="直线备份-2"></line>
                        <line x1="0.389675271" y1="276.5" x2="935.610325" y2="276.5" id="直线备份-5"></line>
                        <line x1="0.389675271" y1="46.5" x2="935.610325" y2="46.5" id="直线备份"></line>
                        <line x1="0.389675271" y1="230.5" x2="935.610325" y2="230.5" id="直线备份-6"></line>
                        <line x1="0.389675271" y1="138.5" x2="935.610325" y2="138.5" id="直线备份-3"></line>
                    </g>
                </g>
            </g>
        </g>
    </g>
</svg>