<svg xmlns="http://www.w3.org/2000/svg" width="32" height="32" viewBox="0 0 32 32"><defs><style>.a{fill:#0fbd8c;}.b{fill:#fff;}</style></defs><g transform="translate(-1807 -928)"><g transform="translate(6 -11)"><rect class="a" width="32" height="32" rx="16" transform="translate(1801 939)"/></g><path class="b" d="M72.108,80.032a3.051,3.051,0,0,0-2.617,3.02v.407h6.1v-.407a3.051,3.051,0,0,0-3.485-3.02Zm7.318,2.739a.61.61,0,0,0-.593.144l-1.74,1.662h-9.1l-1.741-1.662a.61.61,0,1,0-.842.882l1.641,1.567v3.382H64.61a.61.61,0,0,0,0,1.22h2.441v.711a5.469,5.469,0,0,0,.748,2.769L65.41,95.729a.61.61,0,1,0,.843.883l2.283-2.179a5.475,5.475,0,0,0,3.4,1.7V88.848a.61.61,0,0,1,1.22,0v7.289a5.481,5.481,0,0,0,3.4-1.7l2.283,2.179a.611.611,0,0,0,.843-.883l-2.39-2.281a5.473,5.473,0,0,0,.747-2.769v-.712h2.441a.61.61,0,0,0,0-1.22H78.034V85.365L79.676,83.8a.61.61,0,0,0-.25-1.027Z" transform="translate(1750.457 855.609)"/></g></svg>