<svg xmlns="http://www.w3.org/2000/svg" xmlns:xlink="http://www.w3.org/1999/xlink" width="20" height="18" viewBox="0 0 20 18"><defs><style>.a{fill:none;stroke:#707070;opacity:0.44;}.b{clip-path:url(#a);}.c{fill:#b5b5b5;}</style><clipPath id="a"><rect class="a" width="20" height="18" transform="translate(1646 916)"/></clipPath></defs><g class="b" transform="translate(-1646 -916)"><path class="c" d="M20173.238-4.285l-8.42-6.889a1,1,0,0,1,0-1.545l8.42-6.889a1,1,0,0,1,1.631.775v3.878c1.742.063,4.855.449,6.584,2.3,2.492,2.67,1.951,6.965,1.951,6.965a.841.841,0,0,1-1,.6,8.871,8.871,0,0,0-3.363-3.571,8.58,8.58,0,0,0-4.168-.46v4.067a1,1,0,0,1-1,1A.977.977,0,0,1,20173.238-4.285Z" transform="translate(-18517.453 936.946)"/></g></svg>