<svg xmlns="http://www.w3.org/2000/svg" xmlns:xlink="http://www.w3.org/1999/xlink" width="20" height="18" viewBox="0 0 20 18"><defs><style>.a{fill:none;stroke:#707070;opacity:0.44;}.b{clip-path:url(#a);}.c{fill:#b5b5b5;}</style><clipPath id="a"><rect class="a" width="20" height="18"/></clipPath></defs><g class="b"><path class="c" d="M8.784,15.553.367,8.664a1,1,0,0,1,0-1.548L8.784.227A1,1,0,0,1,10.418,1V5.066a8.584,8.584,0,0,0,4.169-.46,8.918,8.918,0,0,0,3.364-3.57.832.832,0,0,1,1,.6S19.493,5.927,17,8.6c-1.729,1.853-4.841,2.239-6.584,2.3v3.881a1,1,0,0,1-1.005,1A.983.983,0,0,1,8.784,15.553Z" transform="translate(19 16.89) rotate(180)"/></g></svg>