<svg xmlns="http://www.w3.org/2000/svg" width="18" height="18" viewBox="0 0 18 18"><defs><style>.a,.d{fill:none;}.a{stroke:#ce8137;}.b{fill:#fff;}.c,.e{stroke:none;}.e{fill:#ce8137;}</style></defs><g transform="translate(-74 -844)"><g class="a" transform="translate(74 844)"><rect class="c" width="18" height="18" rx="2"/><rect class="d" x="0.5" y="0.5" width="17" height="17" rx="1.5"/></g><g class="b" transform="translate(-10609 -22634)"><path class="c" d="M 10696.501953125 23493.5 L 10696.5009765625 23493.5 C 10696.5 23493.5 10696.4990234375 23493.5 10696.4990234375 23493.5 L 10696.4990234375 23492.001953125 L 10696.4990234375 23491.501953125 L 10695.9990234375 23491.501953125 L 10692.5029296875 23491.501953125 L 10692.0029296875 23491.501953125 L 10692.0029296875 23492.001953125 L 10692.0029296875 23493.5 L 10692.0009765625 23492.001953125 L 10692.0009765625 23491.501953125 L 10691.5009765625 23491.501953125 L 10687.998046875 23491.501953125 L 10687.498046875 23491.501953125 L 10687.001953125 23491.501953125 L 10685.5029296875 23491.501953125 C 10685.5029296875 23491.501953125 10685.5029296875 23491.5 10685.5029296875 23491.5 L 10687.001953125 23491.5 L 10687.498046875 23491.5 L 10687.998046875 23491.5 L 10691.5009765625 23491.5 L 10692.0009765625 23491.5 L 10692.0009765625 23491 L 10692.0009765625 23487.501953125 L 10692.0009765625 23487.001953125 L 10691.5009765625 23487.001953125 L 10687.998046875 23487.001953125 L 10687.501953125 23487.001953125 L 10687.001953125 23487.001953125 L 10685.50390625 23487.001953125 C 10685.50390625 23487.001953125 10685.50390625 23487 10685.50390625 23487 L 10687.001953125 23487 L 10687.498046875 23487 L 10687.998046875 23487 L 10691.5009765625 23487 L 10692.0009765625 23487 L 10692.0009765625 23486.5 L 10692.0009765625 23482.998046875 L 10692.0009765625 23482.498046875 L 10692.0009765625 23482.001953125 L 10692.0009765625 23480.501953125 C 10692.001953125 23480.501953125 10692.0029296875 23480.501953125 10692.0029296875 23480.5 L 10692.0029296875 23482.001953125 L 10692.0029296875 23482.501953125 L 10692.0029296875 23482.998046875 L 10692.0029296875 23486.5 L 10692.0029296875 23487 L 10692.5029296875 23487 L 10695.9990234375 23487 L 10696.4990234375 23487 L 10696.4990234375 23486.5 L 10696.4990234375 23482.998046875 L 10696.4990234375 23482.498046875 L 10696.4990234375 23482.001953125 L 10696.4990234375 23480.50390625 L 10696.501953125 23480.50390625 L 10696.501953125 23482.001953125 L 10696.501953125 23482.501953125 L 10696.501953125 23482.998046875 L 10696.501953125 23486.5 L 10696.501953125 23487 L 10697.001953125 23487 L 10698.4990234375 23487 C 10698.4990234375 23487 10698.4990234375 23487 10698.4990234375 23487 C 10698.5009765625 23487 10698.4990234375 23487.001953125 10698.498046875 23487.001953125 L 10697.001953125 23487.001953125 L 10696.501953125 23487.001953125 L 10696.501953125 23487.501953125 L 10696.501953125 23491 L 10696.501953125 23491.5 L 10697.001953125 23491.5 L 10698.4990234375 23491.5 L 10697.001953125 23491.501953125 L 10696.501953125 23491.501953125 L 10696.501953125 23492.001953125 L 10696.501953125 23493.5 Z M 10692.0029296875 23487.001953125 L 10692.0029296875 23487.501953125 L 10692.0029296875 23491 L 10692.0029296875 23491.5 L 10692.5029296875 23491.5 L 10695.9990234375 23491.5 L 10696.4990234375 23491.5 L 10696.4990234375 23491 L 10696.4990234375 23487.501953125 L 10696.4990234375 23487.001953125 L 10695.9990234375 23487.001953125 L 10692.5029296875 23487.001953125 L 10692.0029296875 23487.001953125 Z"/><path class="e" d="M 10696.5009765625 23494 C 10696.2236328125 23494 10695.9990234375 23493.77734375 10695.9990234375 23493.5 L 10695.9990234375 23492.001953125 L 10692.5029296875 23492.001953125 L 10692.5029296875 23493.5 C 10692.5029296875 23493.77734375 10692.279296875 23494 10692.001953125 23494 C 10691.724609375 23494 10691.5009765625 23493.77734375 10691.5009765625 23493.5 L 10691.5009765625 23492.001953125 L 10687.998046875 23492.001953125 L 10687.998046875 23493.5 C 10687.998046875 23493.77734375 10687.7744140625 23494 10687.5029296875 23494 C 10687.2255859375 23494 10687.001953125 23493.77734375 10687.001953125 23493.5 L 10687.001953125 23492.001953125 L 10685.498046875 23492.001953125 C 10685.220703125 23492.001953125 10685.0029296875 23491.77734375 10685.0029296875 23491.5 C 10685.0029296875 23491.22265625 10685.220703125 23491 10685.498046875 23491 L 10687.001953125 23491 L 10687.001953125 23487.501953125 L 10685.498046875 23487.501953125 C 10685.220703125 23487.501953125 10685.0029296875 23487.2734375 10685.0029296875 23487.001953125 C 10685.0029296875 23486.724609375 10685.220703125 23486.5 10685.498046875 23486.5 L 10687.001953125 23486.5 L 10687.001953125 23482.998046875 L 10685.498046875 23482.998046875 C 10685.220703125 23482.998046875 10685.0029296875 23482.7734375 10685.0029296875 23482.501953125 C 10685.0029296875 23482.2265625 10685.220703125 23482.001953125 10685.498046875 23482.001953125 L 10687.001953125 23482.001953125 L 10687.001953125 23480.498046875 C 10687.001953125 23480.2265625 10687.2255859375 23480.001953125 10687.5029296875 23480.001953125 C 10687.7744140625 23480.001953125 10687.998046875 23480.2265625 10687.998046875 23480.498046875 L 10687.998046875 23482.001953125 L 10691.5009765625 23482.001953125 L 10691.5009765625 23480.498046875 C 10691.5009765625 23480.2265625 10691.724609375 23480.001953125 10692.001953125 23480.001953125 C 10692.279296875 23480.001953125 10692.5029296875 23480.2265625 10692.5029296875 23480.498046875 L 10692.5029296875 23482.001953125 L 10695.9990234375 23482.001953125 L 10695.9990234375 23480.498046875 C 10695.9990234375 23480.2265625 10696.2236328125 23480.001953125 10696.5009765625 23480.001953125 C 10696.77734375 23480.001953125 10697.001953125 23480.2265625 10697.001953125 23480.498046875 L 10697.001953125 23482.001953125 L 10698.4990234375 23482.001953125 C 10698.7763671875 23482.001953125 10699.0009765625 23482.2265625 10699.0009765625 23482.501953125 C 10699.0009765625 23482.7734375 10698.7763671875 23482.998046875 10698.4990234375 23482.998046875 L 10697.001953125 23482.998046875 L 10697.001953125 23486.5 L 10698.4990234375 23486.5 C 10698.7763671875 23486.5 10699.0009765625 23486.724609375 10699.0009765625 23487.001953125 C 10699.0009765625 23487.2734375 10698.7763671875 23487.501953125 10698.4990234375 23487.501953125 L 10697.001953125 23487.501953125 L 10697.001953125 23491 L 10698.4990234375 23491 C 10698.7763671875 23491 10699.0009765625 23491.22265625 10699.0009765625 23491.5 C 10699.0009765625 23491.77734375 10698.7763671875 23492.001953125 10698.4990234375 23492.001953125 L 10697.001953125 23492.001953125 L 10697.001953125 23493.5 C 10697.001953125 23493.77734375 10696.77734375 23494 10696.5009765625 23494 Z M 10692.5029296875 23487.501953125 L 10692.5029296875 23491 L 10695.9990234375 23491 L 10695.9990234375 23487.501953125 L 10692.5029296875 23487.501953125 Z M 10687.998046875 23487.501953125 L 10687.998046875 23491 L 10691.5009765625 23491 L 10691.5009765625 23487.501953125 L 10687.998046875 23487.501953125 Z M 10692.5029296875 23482.998046875 L 10692.5029296875 23486.5 L 10695.9990234375 23486.5 L 10695.9990234375 23482.998046875 L 10692.5029296875 23482.998046875 Z M 10687.998046875 23482.998046875 L 10687.998046875 23486.5 L 10691.5009765625 23486.5 L 10691.5009765625 23482.998046875 L 10687.998046875 23482.998046875 Z"/></g></g></svg>