<svg xmlns="http://www.w3.org/2000/svg" xmlns:xlink="http://www.w3.org/1999/xlink" width="46" height="46" viewBox="0 0 46 46"><defs><style>.a,.c{fill:none;}.a,.c,.d{stroke:#ce8137;}.a{opacity:0.51;}.b{clip-path:url(#a);}.c,.d{stroke-linecap:round;stroke-width:4px;fill-rule:evenodd;}.d{fill:#fadf76;}</style><clipPath id="a"><rect class="a" width="46" height="46" transform="translate(10387 15940)"/></clipPath></defs><g class="b" transform="translate(-10387 -15940)"><g transform="translate(10388.538 15941.5)"><g transform="translate(0.5 0.5)"><path class="c" d="M40.839,13.437A20.968,20.968,0,1,1,18.5.709L18.63.69l.127-.017L18.9.655l.147-.017L19.2.621l.136-.015.151-.014.153-.014.145-.012.148-.011.21-.014.318-.018L20.6.518l.242-.008c.1,0,.2-.006.3-.007l.326,0" transform="translate(-0.5 -0.5)"/><g transform="translate(13.045 1.864)"><path class="c" d="M27.5,23.932V7.159a4.66,4.66,0,0,1,8.984-1.738c.033.083.064.167.092.252s.05.155.072.234c.017.058.032.117.046.177.023.1.043.195.06.294s.034.224.045.338c.008.09.014.182.018.274,0,.056,0,.113,0,.17V8.246" transform="translate(-14.455 -2.5)"/><path class="d" d="M21.023,18.5A6.523,6.523,0,1,1,14.5,25.023,6.523,6.523,0,0,1,21.023,18.5Z" transform="translate(-14.5 -3.591)"/></g></g></g></g></svg>