<svg xmlns="http://www.w3.org/2000/svg" xmlns:xlink="http://www.w3.org/1999/xlink" width="16" height="16" viewBox="0 0 16 16"><defs><style>.a,.c,.f{fill:none;}.a,.c,.d{stroke:#999;}.a{opacity:0.49;}.b{clip-path:url(#a);}.c,.d{stroke-linecap:round;}.c{fill-rule:evenodd;}.d{fill:#fff;}.e{stroke:none;}</style><clipPath id="a"><rect class="a" width="16" height="16" transform="translate(277.5 936)"/></clipPath></defs><g class="b" transform="translate(-277.5 -936)"><path class="c" d="M-6,1H.5A1.5,1.5,0,0,1,2,2.5V9" transform="translate(284 942)"/><g class="d" transform="translate(292.293 936.438) rotate(45)"><rect class="e" width="1" height="7.334" rx="0.5"/><rect class="f" x="0.5" y="0.5" height="6.334"/></g><path class="c" d="M11.071,1H13.5A1.487,1.487,0,0,1,14.99,2.486V4.945m0,3.889v5.6A1.487,1.487,0,0,1,13.5,15.923H1.486A1.487,1.487,0,0,1,0,14.437V2.486A1.487,1.487,0,0,1,1.486,1H7.115" transform="translate(278 935.515)"/></g></svg>