<svg xmlns="http://www.w3.org/2000/svg" width="51.29" height="43.611" viewBox="0 0 51.29 43.611"><defs><style>.a{fill:#ee7617;}.b{fill:#fff;}.c{fill:#ff8c31;}</style></defs><g transform="translate(-553.426 -328.426)"><path class="a" d="M12.2-.385,25.623,8.331a2,2,0,0,1,.588,2.767L17.5,24.516a2,2,0,0,1-2.767.588L1.309,16.388a2,2,0,0,1-.588-2.767L9.435.2A2,2,0,0,1,12.2-.385Z" transform="matrix(-0.951, 0.309, -0.309, -0.951, 604.876, 360.842)"/><ellipse class="b" cx="2.5" cy="2.5" rx="2.5" ry="2.5" transform="matrix(-0.951, 0.309, -0.309, -0.951, 592.8, 354.955)"/><path class="c" d="M1.227-14406.972l19.121-11.489a2,2,0,0,1,2.744.685l11.488,19.118a2,2,0,0,1-.684,2.745l-19.121,11.489a2,2,0,0,1-2.744-.685L.542-14404.228A2,2,0,0,1,1.227-14406.972Z" transform="matrix(0.951, 0.309, -0.309, 0.951, -3891.762, 14041.391)"/><ellipse class="b" cx="2.5" cy="2.5" rx="2.5" ry="2.5" transform="translate(564.65 340.273)"/><ellipse class="b" cx="2.5" cy="2.5" rx="2.5" ry="2.5" transform="translate(579.007 338.65)"/><ellipse class="b" cx="2.5" cy="2.5" rx="2.5" ry="2.5" transform="translate(572.64 346.64)"/><ellipse class="b" cx="2.5" cy="2.5" rx="2.5" ry="2.5" transform="translate(567.41 354.996)"/><ellipse class="b" cx="2.5" cy="2.5" rx="2.5" ry="2.5" transform="translate(582.904 353.744)"/></g></svg>