<svg xmlns="http://www.w3.org/2000/svg" width="10" height="10" viewBox="0 0 10 10"><defs><style>.a,.b,.d{fill:none;}.a{stroke:#ce8137;}.c,.e{stroke:none;}.e{fill:#ce8137;}</style></defs><g transform="translate(-4779 -16157)"><g class="a" transform="translate(4781 16157)"><rect class="c" width="8" height="8" rx="1"/><rect class="d" x="0.5" y="0.5" width="7" height="7" rx="0.5"/></g><g class="b" transform="translate(4779 16158)"><path class="c" d="M7,9H1A1,1,0,0,1,0,8V2A1,1,0,0,1,1,1H3V5.5a.5.5,0,0,0,.5.5H8V8A1,1,0,0,1,7,9Z"/><path class="e" d="M 7.000200271606445 8 L 7.000100135803223 8 L 7.000100135803223 7.00029993057251 L 3.500100135803223 7.00029993057251 C 2.67278003692627 7.00029993057251 1.99970006942749 6.32721996307373 1.99970006942749 5.499899864196777 L 1.99970006942749 1.999849915504456 L 1.00000011920929 1.999799966812134 L 0.9999000430107117 8 L 7.000200271606445 8 M 7.000200271606445 9 L 0.9999000430107117 9 C 0.4485500752925873 9 6.790160966829717e-08 8.551449775695801 6.790160966829717e-08 8.000100135803223 L 6.790160966829717e-08 1.999799966812134 C 6.790160966829717e-08 1.448449969291687 0.4485500752925873 0.9998999238014221 0.9999000430107117 0.9998999238014221 L 2.99970006942749 0.9998999238014221 L 2.99970006942749 5.499899864196777 C 2.99970006942749 5.775819778442383 3.224179983139038 6.00029993057251 3.500100135803223 6.00029993057251 L 8.000100135803223 6.00029993057251 L 8.000100135803223 8.000100135803223 C 8.000100135803223 8.551449775695801 7.551549911499023 9 7.000200271606445 9 Z"/></g></g></svg>