<?xml version="1.0" standalone="no"?><!DOCTYPE svg PUBLIC "-//W3C//DTD SVG 1.1//EN" "http://www.w3.org/Graphics/SVG/1.1/DTD/svg11.dtd"><svg t="1561470748976" class="icon" viewBox="0 0 1024 1024" version="1.1" xmlns="http://www.w3.org/2000/svg" p-id="1109" width="64" height="64" xmlns:xlink="http://www.w3.org/1999/xlink"><defs><style type="text/css"></style></defs><path d="M846.299297 301.263391c-86.788645 72.718185-190.942797 195.514929-312.460408 368.390232l-59.879785 87.940888c-50.01409-58.96802-130.534985-140.832516-241.644549-245.593488l33.225729-31.338752c12.375865-11.67183 33.273824-12.343119 46.448891-1.471514l124.987643 103.034654c52.092425-49.118698 100.508112-93.64889 145.30948-133.604904 44.769646-39.940664 80.537268-70.576405 107.254769-91.841731 26.750247-21.297049 49.470715-39.445384 68.225871-54.522778 18.738783-15.062044 32.122605-24.735357 40.116673-28.971845l10.920724-6.875594c1.390673 0 3.309372 0.319272 5.739724 0.959861 2.413979 0.671289 6.939039 3.773953 13.527085 9.354042 6.604418 5.545296 12.68081 13.748119 18.228153 24.540929z" p-id="1110" fill="#000000"></path></svg>