<svg xmlns="http://www.w3.org/2000/svg" width="22" height="22" viewBox="0 0 22 22"><defs><style>.a{fill:#ccc;}.b{fill:#fff;opacity:0;}</style></defs><g transform="translate(-1612 -86)"><g transform="translate(1616 91)"><path class="a" d="M5.168,1.248a1,1,0,0,1,1.664,0l4.131,6.2A1,1,0,0,1,10.131,9H1.869a1,1,0,0,1-.832-1.555Z" transform="translate(14) rotate(90)"/><path class="a" d="M5.168,1.248a1,1,0,0,1,1.664,0l4.131,6.2A1,1,0,0,1,10.131,9H1.869a1,1,0,0,1-.832-1.555Z" transform="translate(9) rotate(90)"/></g><rect class="b" width="22" height="22" transform="translate(1612 86)"/></g></svg>