<svg xmlns="http://www.w3.org/2000/svg" width="48" height="48" viewBox="0 0 48 48"><defs><style>.a{fill:#e1b387;}.b{fill:#fff;opacity:0;}</style></defs><g transform="translate(-852 -100)"><g transform="translate(-207.003 3)"><path class="a" d="M-11201,22022a4.005,4.005,0,0,1-4-4v-18a4.006,4.006,0,0,1,4-4.006h2a4,4,0,0,1,4-4h3a4,4,0,0,1,4,4H-11177a4,4,0,0,1,4,4.006v13.066a7.937,7.937,0,0,0-4-1.072,8.009,8.009,0,0,0-7.992,8,8.02,8.02,0,0,0,.249,2l-.006.006Zm4-13.006a7.007,7.007,0,0,0,7,7,7.011,7.011,0,0,0,7-7,7.01,7.01,0,0,0-7-7A7.006,7.006,0,0,0-11197,22008.994Zm17.006-7a1.993,1.993,0,0,0,1.989,2,2,2,0,0,0,2-2,2,2,0,0,0-2-2A1.994,1.994,0,0,0-11179.992,22002Z" transform="translate(12270.996 -21889)"/><path class="a" d="M-11200,22004a6.007,6.007,0,0,1-6-6,6,6,0,0,1,6-6,6.006,6.006,0,0,1,6,6A6.011,6.011,0,0,1-11200,22004Zm-2.5-7.5a1.5,1.5,0,0,0-1.5,1.5,1.5,1.5,0,0,0,1.5,1.5h1v1a1.5,1.5,0,0,0,1.5,1.5,1.5,1.5,0,0,0,1.5-1.5v-1h1a1.5,1.5,0,0,0,1.5-1.5,1.5,1.5,0,0,0-1.5-1.5h-1v-1a1.5,1.5,0,0,0-1.5-1.5,1.5,1.5,0,0,0-1.5,1.5v1Z" transform="translate(12294 -21867)"/></g><rect class="b" width="48" height="48" transform="translate(852 100)"/></g></svg>