<svg xmlns="http://www.w3.org/2000/svg" xmlns:xlink="http://www.w3.org/1999/xlink" width="28" height="28" viewBox="0 0 28 28"><defs><style>.a,.l{fill:#fff;}.a{stroke:#fff;stroke-width:4px;}.a,.k{stroke-miterlimit:10;}.b{fill:#ffc4c9;}.c{fill:#e75c5c;}.d,.e,.k,.o,.t{fill:none;}.d{stroke:#d5be64;}.f{clip-path:url(#a);}.g{fill:#6195fe;}.h{clip-path:url(#b);}.i{fill:#ffbbc1;}.j{fill:#6c718b;}.k{stroke:#000;}.k,.o{stroke-linecap:round;stroke-width:0.2px;}.m{fill:#ffaeb5;}.n{fill:#161f4d;}.o{stroke:#ffaeb5;}.p{fill:#ff4858;}.q{clip-path:url(#c);}.r{clip-path:url(#d);}.s{fill:url(#e);}.u{clip-path:url(#g);}.v,.w{stroke:none;}.w{fill:#d5be64;}</style><clipPath id="a"><circle class="a" cx="14" cy="14" r="14" transform="translate(-0.406 -0.406)"/></clipPath><clipPath id="b"><path class="b" d="M11.877,5.939H0A5.94,5.94,0,0,1,11.411,3.627a5.9,5.9,0,0,1,.467,2.311Z" transform="translate(0 0)"/></clipPath><clipPath id="c"><path class="c" d="M1.033.892A1.224,1.224,0,0,0,2.066.031c0-.1-.463.095-1.033.095S0-.075,0,.031A1.217,1.217,0,0,0,1.033.892Z" transform="translate(0 0)"/></clipPath><clipPath id="d"><path class="b" d="M6.113,12.742c5.116,0,6.113-2.719,6.113-6.285S10.023,0,6.113,0,0,2.891,0,6.457,1,12.742,6.113,12.742Z" transform="translate(0)"/></clipPath><radialGradient id="e" cx="0.5" cy="0.5" r="0.5" gradientUnits="objectBoundingBox"><stop offset="0" stop-color="#fc6a75" stop-opacity="0.341"/><stop offset="0.728" stop-color="#feacb3" stop-opacity="0.349"/><stop offset="1" stop-color="#ffcfd3" stop-opacity="0"/></radialGradient><clipPath id="g"><circle class="d" cx="14" cy="14" r="14" transform="translate(-0.406 -0.406)"/></clipPath></defs><g transform="translate(-178.594 -895.594)"><g transform="translate(179 896)"><g class="a" transform="translate(-0.406 -0.406)"><circle class="v" cx="14" cy="14" r="14"/><circle class="e" cx="14" cy="14" r="12"/></g><circle class="e" cx="13.5" cy="13.5" r="13.5" transform="translate(0.594 0.594)"/><circle class="e" cx="13.5" cy="13.5" r="13.5" transform="translate(0.594 0.594)"/><g class="f" transform="translate(0 0)"><g transform="translate(5.281 2.863)"><g transform="translate(2.301 16.776)"><rect class="b" width="2.699" height="3.779" transform="translate(4.6)"/><g transform="translate(0 2.159)"><path class="g" d="M11.877,5.939H0A5.94,5.94,0,0,1,11.411,3.627a5.9,5.9,0,0,1,.467,2.311Z"/><g class="h" transform="translate(0)"><circle class="b" cx="6.026" cy="6.026" r="6.026" transform="translate(-0.092 -9.131)"/></g></g></g><g transform="translate(2.808 14.766) rotate(180)"><path class="i" d="M2.146,3.707A1.767,1.767,0,0,1,0,1.9,1.709,1.709,0,0,1,1.635,0c.956.065.712.889.778,1.951S3.417,3.41,2.146,3.707Z" transform="translate(2.808 3.758) rotate(180)"/></g><g transform="translate(13.656 11.009)"><path class="i" d="M.662,3.707A1.767,1.767,0,0,0,2.808,1.9,1.709,1.709,0,0,0,1.173,0C.218.069.461.892.4,1.954S-.609,3.41.662,3.707Z" transform="translate(0 0)"/></g><path class="b" d="M6.113,12.742c5.116,0,6.113-2.719,6.113-6.285S10.023,0,6.113,0,0,2.891,0,6.457,1,12.742,6.113,12.742Z" transform="translate(2.119 4.639)"/><path class="j" d="M.856,10.148a7.333,7.333,0,0,1,.36-2.7C1.773,5.8.771,4.105,1.327,4c.1-.018,2.663,2.115,3.207,1.594.685-.657.653.616.653.616s-.224-.858-.521-.418c-.411.607,1.82,1,2.321.418a2.2,2.2,0,0,0,.658-1.386c0-.776,2.6-3.649,2.6-3.649A6.983,6.983,0,0,0,5.187.189,5.961,5.961,0,0,0,.444,3.322C-.855,5.741-.187,8.431-.024,9.87c.118.042.127-.051.468.045S.735,10.022.856,10.148Z" transform="translate(1.331 1.144)"/><path class="j" d="M-42.3,10.506c-.19-.26.19-1.688-.779-3.336a23.019,23.019,0,0,1-1.268-2.324c-.628-.043-1.356-1.677-1.822-2.26A3.349,3.349,0,0,0-49.63,1.549,5.438,5.438,0,0,1-47.034.7c.093.011-.112-.244-.334-.443-.118-.106-.321-.208-.31-.221.076-.087.361,0,.583.147.345.22.663.58.721.547.317-.177.875-.254.795-.177S-46.012.887-45.9.9c2.281.335,6.107,3.509,4.474,9.378C-41.453,10.414-41.231,9.928-42.3,10.506Z" transform="translate(56.665 0.817)"/><path class="k" d="M0,.517A2.031,2.031,0,0,1,1.453,0c.092,0,.182,0,.269.013" transform="translate(9.345 9.439)"/><path class="k" d="M1.722.517A2.031,2.031,0,0,0,.269,0C.178,0,.088,0,0,.013" transform="translate(4.868 9.398)"/><path class="l" d="M0,0H0A0,0,0,0,1,0,0V.54a0,0,0,0,1,0,0H0a0,0,0,0,1,0,0V0A0,0,0,0,1,0,0Z" transform="translate(7.708 15.696)"/><path class="m" d="M.872,1.507A.718.718,0,0,1,0,.772.7.7,0,0,1,.665,0c.389.027.29.361.316.793S1.389,1.386.872,1.507Z" transform="translate(0.547 12.469)"/><g transform="translate(0.223 0)"><path class="n" d="M7.312-4.473c.855.342,1.185.168,1.547,1.32a20.683,20.683,0,0,1,1.08,4.512S6.884-.557,6.666.905a3.087,3.087,0,0,0,0,1.252,3.124,3.124,0,0,0,.208.923c.112.211.365.736-1.23.847a44.166,44.166,0,0,1-7.39-.469C-2.526,3.209-2.887,3-3,2.185-3.295-1.079,1.27-6.577,7.312-4.473Z" transform="translate(3.012 4.94)"/><path class="n" d="M-.091-1.92c-.165,0-.575.531-.575.779a5.131,5.131,0,0,1,1.1,3,30.657,30.657,0,0,1-.3,4.025c0,.248.134.448.3.448A16.738,16.738,0,0,0,3.46,6.48c.891-.131,1.932-.032,1.949-1.113C5.152.288,2.66-1.92-.091-1.92Z" transform="translate(10.713 2.44)"/></g><g transform="translate(7.633 12.361)"><path class="m" d="M.6,1.594c.333,0,.6-.19.6,0s-.27.344-.6.344S0,1.784,0,1.594.27,1.594.6,1.594Z" transform="translate(0 0.498)"/><path class="o" d="M-2969.181-411.149a6.984,6.984,0,0,1-.335,2.1" transform="translate(2969.594 411.149)"/></g><g transform="translate(7.215 15.8)"><path class="p" d="M1.033.892A1.224,1.224,0,0,0,2.066.031c0-.1-.463.095-1.033.095S0-.075,0,.031A1.217,1.217,0,0,0,1.033.892Z" transform="translate(0 0)"/><g class="q"><g transform="translate(0.762 -0.211)"><path class="l" d="M.1,0H.17a.1.1,0,0,1,.1.1V.49A.05.05,0,0,1,.22.54H.1A.1.1,0,0,1,0,.44V.1A.1.1,0,0,1,.1,0Z"/><path class="l" d="M.1,0H.17a.1.1,0,0,1,.1.1V.44a.1.1,0,0,1-.1.1H.05A.05.05,0,0,1,0,.49V.1A.1.1,0,0,1,.1,0Z" transform="translate(0.27)"/></g></g></g><ellipse cx="0.54" cy="0.81" rx="0.54" ry="0.81" transform="translate(4.914 10.731)"/><ellipse cx="0.54" cy="0.81" rx="0.54" ry="0.81" transform="translate(9.773 10.731)"/><g class="r" transform="translate(2.12 4.638)"><g transform="translate(-0.133 7.139)"><circle class="s" cx="2.614" cy="2.614" r="2.614"/><circle class="s" cx="2.614" cy="2.614" r="2.614" transform="translate(7.32)"/></g></g></g></g><path class="m" d="M.269,1.507A.718.718,0,0,0,1.142.772.7.7,0,0,0,.477,0C.088.028.187.363.161.795S-.248,1.386.269,1.507Z" transform="translate(19.397 15.332)"/></g><g transform="translate(179 896)"><g class="t" transform="translate(-0.406 -0.406)"><path class="v" d="M14,0A14,14,0,1,1,0,14,14,14,0,0,1,14,0Z"/><path class="w" d="M 13.99987411499023 1.000003814697266 C 10.52748489379883 1.000003814697266 7.262924194335938 2.352224349975586 4.807573318481445 4.807573318481445 C 2.352224349975586 7.262924194335938 1.000003814697266 10.52748489379883 1.000003814697266 13.99987411499023 C 1.000003814697266 17.47226333618164 2.352224349975586 20.73681449890137 4.807573318481445 23.19216346740723 C 7.262924194335938 25.64752388000488 10.52748489379883 26.9997444152832 13.99987411499023 26.9997444152832 C 17.47226333618164 26.9997444152832 20.73681449890137 25.64752388000488 23.19216346740723 23.19216346740723 C 25.64752388000488 20.73681449890137 26.9997444152832 17.47226333618164 26.9997444152832 13.99987411499023 C 26.9997444152832 10.52748489379883 25.64752388000488 7.262924194335938 23.19216346740723 4.807573318481445 C 20.73681449890137 2.352224349975586 17.47226333618164 1.000003814697266 13.99987411499023 1.000003814697266 M 13.99987411499023 3.814697265625e-06 C 21.73178482055664 3.814697265625e-06 27.9997444152832 6.267953872680664 27.9997444152832 13.99987411499023 C 27.9997444152832 21.73178482055664 21.73178482055664 27.9997444152832 13.99987411499023 27.9997444152832 C 6.267953872680664 27.9997444152832 3.814697265625e-06 21.73178482055664 3.814697265625e-06 13.99987411499023 C 3.814697265625e-06 6.267953872680664 6.267953872680664 3.814697265625e-06 13.99987411499023 3.814697265625e-06 Z"/></g></g></g></svg>