<svg xmlns="http://www.w3.org/2000/svg" xmlns:xlink="http://www.w3.org/1999/xlink" width="28" height="28" viewBox="0 0 28 28"><defs><style>.a,.f{fill:none;}.a,.d{stroke:#242424;}.b{fill:#f2f2f2;opacity:0;}.c{clip-path:url(#a);}.d{fill:#242424;}.e{stroke:none;}</style><clipPath id="a"><rect class="a" width="22" height="22" transform="translate(707 -22031) rotate(90)"/></clipPath></defs><g transform="translate(-1781 -256)"><rect class="b" width="28" height="28" transform="translate(1781 256)"/><g class="c" transform="translate(1099 22290)"><g transform="translate(-66 -6)"><g class="d" transform="translate(759 -22020)"><rect class="e" width="6" height="1" rx="0.5"/><rect class="f" x="0.5" y="0.5" width="5"/></g><g class="d" transform="translate(755 -22018)"><rect class="e" width="14" height="1" rx="0.5"/><rect class="f" x="0.5" y="0.5" width="13"/></g><g class="a" transform="translate(757 -22018)"><path class="e" d="M0,0H10a0,0,0,0,1,0,0V8a2,2,0,0,1-2,2H2A2,2,0,0,1,0,8V0A0,0,0,0,1,0,0Z"/><path class="f" d="M1,.5H9a.5.5,0,0,1,.5.5V8A1.5,1.5,0,0,1,8,9.5H2A1.5,1.5,0,0,1,.5,8V1A.5.5,0,0,1,1,.5Z"/></g><g class="d" transform="translate(761 -22015) rotate(90)"><rect class="e" width="4" height="1" rx="0.5"/><rect class="f" x="0.5" y="0.5" width="3"/></g><g class="d" transform="translate(764 -22015) rotate(90)"><rect class="e" width="4" height="1" rx="0.5"/><rect class="f" x="0.5" y="0.5" width="3"/></g></g></g></g></svg>