<svg xmlns="http://www.w3.org/2000/svg" xmlns:xlink="http://www.w3.org/1999/xlink" width="17" height="14" viewBox="0 0 17 14"><defs><style>.a,.c,.d,.g{fill:none;}.a,.d{stroke:#666;}.a{opacity:0.52;}.b{clip-path:url(#a);}.e,.f{stroke:none;}.f{fill:#666;}</style><clipPath id="a"><rect class="a" width="17" height="14" transform="translate(0.284 0.796)"/></clipPath></defs><g class="b" transform="translate(-0.284 -0.796)"><g transform="translate(0.284 0.797)"><g class="c" transform="translate(17 14) rotate(180)"><path class="e" d="M8.5,14C3.813,14,0,10.86,0,7A5.89,5.89,0,0,1,.507,4.614h0l0,0,.018.007a3.253,3.253,0,0,0,1.178.214,3.6,3.6,0,0,0,3.1-1.747A2.548,2.548,0,0,0,4.919.649,9.968,9.968,0,0,1,8.5,0C13.187,0,17,3.14,17,7S13.187,14,8.5,14Z"/><path class="f" d="M 8.499600410461426 13.00040054321289 C 10.53519058227539 13.00040054321289 12.44309043884277 12.35241985321045 13.87185096740723 11.17582988739014 C 15.24427032470703 10.04563045501709 16.00010108947754 8.562700271606445 16.00010108947754 7.000200271606445 C 16.00010108947754 5.437700271606445 15.24427032470703 3.95477032661438 13.87185096740723 2.824570178985596 C 12.44309043884277 1.647980213165283 10.53519058227539 1.000000238418579 8.499600410461426 1.000000238418579 C 7.69131326675415 1.000000238418579 6.905466079711914 1.100779175758362 6.153067111968994 1.300349473953247 C 6.252715110778809 2.062236785888672 6.093448638916016 2.855107307434082 5.678900718688965 3.584890365600586 C 4.900820732116699 4.953300476074219 3.342230558395386 5.837500095367432 1.708200573921204 5.837500095367432 C 1.519544243812561 5.837500095367432 1.333383798599243 5.825851440429688 1.150169730186462 5.802607536315918 C 1.050324320793152 6.194639682769775 1.000000596046448 6.595103740692139 1.000000596046448 7.000200271606445 C 1.000000596046448 8.56272029876709 1.75575053691864 10.04567050933838 3.128020524978638 11.17586040496826 C 4.556610584259033 12.35243034362793 6.46427059173584 13.00040054321289 8.499600410461426 13.00040054321289 M 8.499600410461426 14.00040054321289 C 3.812900543212891 14.00040054321289 5.447387820822769e-07 10.86011981964111 5.447387820822769e-07 7.000200271606445 C 5.447387820822769e-07 6.180440425872803 0.1704305410385132 5.377620220184326 0.5065405368804932 4.614040374755859 L 0.5070305466651917 4.612940311431885 L 0.5117505192756653 4.616120338439941 L 0.5301105380058289 4.623300075531006 C 0.8977105617523193 4.765430450439453 1.294080495834351 4.837500095367432 1.708200573921204 4.837500095367432 C 2.98883056640625 4.837500095367432 4.20620059967041 4.151800155639648 4.809600353240967 3.090600252151489 C 5.261720657348633 2.294670343399048 5.301740646362305 1.404890298843384 4.919410705566406 0.6493902802467346 C 6.04572057723999 0.2180202752351761 7.250090599060059 2.716064386731887e-07 8.499600410461426 2.716064386731887e-07 C 13.18679046630859 2.716064386731887e-07 17.00010108947754 3.140280246734619 17.00010108947754 7.000200271606445 C 17.00010108947754 10.86011981964111 13.18679046630859 14.00040054321289 8.499600410461426 14.00040054321289 Z"/></g><g class="d" transform="translate(9 3.117)"><circle class="e" cx="1.5" cy="1.5" r="1.5"/><circle class="g" cx="1.5" cy="1.5" r="1"/></g><g class="d" transform="translate(5 2.878)"><circle class="e" cx="1.25" cy="1.25" r="1.25"/><circle class="g" cx="1.25" cy="1.25" r="0.75"/></g><g class="d" transform="translate(3.5 7.116)"><circle class="e" cx="1" cy="1" r="1"/><circle class="g" cx="1" cy="1" r="0.5"/></g></g></g></svg>