<svg xmlns="http://www.w3.org/2000/svg" xmlns:xlink="http://www.w3.org/1999/xlink" width="85.999" height="49.998" viewBox="0 0 85.999 49.998"><defs><style>.a{fill:#fff;}.b{filter:url(#a);}</style><filter id="a" x="0" y="0" width="85.999" height="49.998" filterUnits="userSpaceOnUse"><feOffset dy="3" input="SourceAlpha"/><feGaussianBlur stdDeviation="3" result="b"/><feFlood flood-color="#999" flood-opacity="0.098"/><feComposite operator="in" in2="b"/><feComposite in="SourceGraphic"/></filter></defs><g class="b" transform="matrix(1, 0, 0, 1, 0, 0)"><path class="a" d="M7188.168-1285.448l-2.132-3.2a1.006,1.006,0,0,1-.15-.354H7159a4,4,0,0,1-4-4v-20a4,4,0,0,1,4-4h60a4,4,0,0,1,4,4v20a4,4,0,0,1-4,4h-26.886a1,1,0,0,1-.149.354l-2.132,3.2a.994.994,0,0,1-.833.446A.99.99,0,0,1,7188.168-1285.448Z" transform="translate(-7146 1323)"/></g></svg>