<svg xmlns="http://www.w3.org/2000/svg" xmlns:xlink="http://www.w3.org/1999/xlink" width="178.517" height="50" viewBox="0 0 178.517 50"><defs><style>.a{fill:none;stroke:#707070;}.b{clip-path:url(#a);}.c{fill:url(#b);}.d{fill:url(#c);}.e{fill:url(#d);}.f{fill:url(#e);}.g,.h{fill:#ce8137;stroke-linecap:square;stroke-miterlimit:10;}.h{stroke:#ce8137;}.i,.j{stroke:none;}.j{fill:#ce8137;}</style><clipPath id="a"><rect class="a" width="44.1" height="50" transform="translate(-0.525 0)"/></clipPath><linearGradient id="b" x1="1" y1="0.464" x2="0.037" y2="0.464" gradientUnits="objectBoundingBox"><stop offset="0" stop-color="#fadf75"/><stop offset="1" stop-color="#ce8137"/></linearGradient><linearGradient id="c" x1="0.5" x2="0.5" y2="1" gradientUnits="objectBoundingBox"><stop offset="0" stop-color="#e1a705"/><stop offset="1" stop-color="#fadf76"/></linearGradient><linearGradient id="d" x1="0.5" x2="0.5" y2="1" gradientUnits="objectBoundingBox"><stop offset="0" stop-color="#ce8137"/><stop offset="1" stop-color="#e1c96e"/></linearGradient><linearGradient id="e" x1="0.975" y1="0.378" x2="0.018" y2="0.386" gradientUnits="objectBoundingBox"><stop offset="0" stop-color="#ce8137"/><stop offset="1" stop-color="#d29300"/></linearGradient></defs><g transform="translate(-828.5 -321)"><g transform="translate(-35 52)"><g transform="translate(851.525 189)"><g transform="translate(12.5 80)"><g class="b" transform="translate(0 0)"><g transform="translate(-0.543 0)"><ellipse class="c" cx="5.5" cy="5" rx="5.5" ry="5" transform="translate(19.518 20)"/><g transform="translate(0 0)"><path class="d" d="M20.833,37.5A24.831,24.831,0,0,1,3.156,30.176,25.535,25.535,0,0,1,1.3,28.111,20.853,20.853,0,0,1,20.752,0h.074a12.5,12.5,0,1,0,8.447,21.712,6.253,6.253,0,0,1,8.843,8.843A24.836,24.836,0,0,1,20.833,37.5ZM29.354,3.362c-.173-.162-.353-.32-.534-.471.183.149.363.307.536.469h0Z" transform="translate(4.166 12.499)"/><path class="e" d="M5.47,40.611A25.005,25.005,0,0,1,7.322,7.322a25,25,0,0,1,35.042-.3l-.006.006a6.249,6.249,0,0,1-8.836,8.836A12.471,12.471,0,0,0,25,12.5h-.081A20.846,20.846,0,0,0,5.473,40.61Z"/><path class="f" d="M20.83,20.556A20.707,20.707,0,0,1,6.191,14.545,20.7,20.7,0,0,1,0,0,12.571,12.571,0,0,0,12.5,12.223a12.461,12.461,0,0,0,8.44-3.287,6.253,6.253,0,0,1,8.843,8.843c-.505.493-1.065.986-1.664,1.467A20.749,20.749,0,0,1,20.83,20.556Z" transform="translate(12.502 25.276)"/></g></g></g></g></g></g><g transform="translate(-31.976 54.346)"><g class="g" transform="translate(622.162 238.761)"><path class="i" d="M 361.5931091308594 55.60440063476562 C 361.2338562011719 55.60440063476562 360.9188842773438 55.41387557983398 360.7467346191406 55.12999725341797 L 362.4391479492188 55.12999725341797 C 362.2670593261719 55.41387557983398 361.9522094726562 55.60440063476562 361.5931091308594 55.60440063476562 Z"/><path class="j" d="M 360.1083679199219 54.62999725341797 L 363.0776672363281 54.62999725341797 L 363.0779113769531 54.63343811035156 C 363.0779113769531 55.44593811035156 362.4130859375 56.10440063476562 361.5931091308594 56.10440063476562 C 360.7727355957031 56.10440063476562 360.10791015625 55.44593811035156 360.10791015625 54.63343811035156 L 360.1083679199219 54.62999725341797 Z"/></g><ellipse class="h" cx="1.025" cy="1.027" rx="1.025" ry="1.027" transform="translate(987.482 306.285)"/><g transform="translate(911.285 282.887)"><path class="h" d="M569.7,35.588a5.65,5.65,0,0,1,4.807,2.127,7.645,7.645,0,0,1,1.39,3.58,1.423,1.423,0,0,1-.317,1.431c-.459.413-1.723.332-1.723.332h-8.248a5.628,5.628,0,0,0,1.2,3.419,3.752,3.752,0,0,0,2.966,1.216,4.112,4.112,0,0,0,2.634-.81,3.889,3.889,0,0,0,.535-.53,3.705,3.705,0,0,0,.395-.628L575,46.733l-.13.214a9.759,9.759,0,0,1-.871.974,6.2,6.2,0,0,1-4.219,1.469,5.909,5.909,0,0,1-4.551-1.849,7.153,7.153,0,0,1-1.739-5.065,7.078,7.078,0,0,1,1.662-4.837A5.587,5.587,0,0,1,569.7,35.588Zm.051,1.7a3.717,3.717,0,0,0-2.838,1.14,5.108,5.108,0,0,0-1.253,3.064h8.259Q573.534,37.285,569.75,37.285Z" transform="translate(-448.76 -29.584)"/><path class="h" d="M613.566,75.53a.983.983,0,0,0-1.963,0Z" transform="matrix(0.891, 0.454, -0.454, 0.891, -385.789, -329.387)"/></g><g transform="translate(844.955 282.886)"><path class="h" d="M569.7,35.588a5.65,5.65,0,0,1,4.807,2.127,7.645,7.645,0,0,1,1.39,3.58,1.423,1.423,0,0,1-.317,1.431c-.459.413-1.723.332-1.723.332h-8.248a5.628,5.628,0,0,0,1.2,3.419,3.752,3.752,0,0,0,2.966,1.216,4.112,4.112,0,0,0,2.634-.81,3.889,3.889,0,0,0,.535-.53,3.705,3.705,0,0,0,.395-.628L575,46.733l-.13.214a9.759,9.759,0,0,1-.871.974,6.2,6.2,0,0,1-4.219,1.469,5.909,5.909,0,0,1-4.551-1.849,7.153,7.153,0,0,1-1.739-5.065,7.078,7.078,0,0,1,1.662-4.837A5.587,5.587,0,0,1,569.7,35.588Zm.051,1.7a3.717,3.717,0,0,0-2.838,1.14,5.108,5.108,0,0,0-1.253,3.064h8.259Q573.534,37.285,569.75,37.285Z" transform="translate(-448.76 -29.584)"/><path class="h" d="M613.566,75.53a.983.983,0,0,0-1.963,0Z" transform="matrix(0.891, 0.454, -0.454, 0.891, -385.789, -329.387)"/></g><path class="h" d="M33.711,11.688a8.13,8.13,0,0,1,5.114,1.6,6.336,6.336,0,0,1,2.455,4.305H39.26a4.654,4.654,0,0,0-1.943-3.039,6.285,6.285,0,0,0-3.631-1.013,5.894,5.894,0,0,0-4.909,2.2,8.528,8.528,0,0,0-1.611,5.42,8.278,8.278,0,0,0,1.585,5.369,5.9,5.9,0,0,0,4.884,2.1,6.045,6.045,0,0,0,3.708-1.14,5.982,5.982,0,0,0,2.173-3.571c2,.113,1.975.224,1.877.639a7.383,7.383,0,0,1-2.721,4.274,7.979,7.979,0,0,1-5.037,1.646,7.936,7.936,0,0,1-6.52-2.786,9.945,9.945,0,0,1-2.046-6.534,10.089,10.089,0,0,1,2.1-6.61A7.872,7.872,0,0,1,33.711,11.688Z" transform="translate(886.217 272.159)"/><ellipse class="h" cx="1.02" cy="1.02" rx="1.02" ry="1.02" transform="translate(1017.439 288.2)"/><circle class="h" cx="1.03" cy="1.03" r="1.03" transform="translate(1017.43 301.286)"/><path class="h" d="M529.113,35.319a4.674,4.674,0,0,1,1.815.3,1.223,1.223,0,0,1,.711,1.2c-.141.8-.711.823-.711.823a6.765,6.765,0,0,0-1.969-.279,3.123,3.123,0,0,0-2.583,1.342,4.722,4.722,0,0,0-1.048,3.115v6.939h-2.02V35.673h2.02V37.32a3.31,3.31,0,0,1,1.381-1.376A4.361,4.361,0,0,1,529.113,35.319Z" transform="translate(494.141 253.518)"/><path class="h" d="M457.007,35.328a5.909,5.909,0,0,1,4.73,2.026,7.143,7.143,0,0,1,1.688,4.888,7.137,7.137,0,0,1-1.662,4.837,6,6,0,0,1-4.756,2.051,5.923,5.923,0,0,1-4.73-2.051,7.011,7.011,0,0,1-1.688-4.837,7.143,7.143,0,0,1,1.688-4.888A5.909,5.909,0,0,1,457.007,35.328Zm0,1.7a3.8,3.8,0,0,0-3.273,1.6,5.932,5.932,0,0,0-1.048,3.622,5.888,5.888,0,0,0,1.048,3.6,3.8,3.8,0,0,0,3.273,1.6,3.948,3.948,0,0,0,3.3-1.6,6.736,6.736,0,0,0,0-7.218A3.947,3.947,0,0,0,457.007,37.025Z" transform="translate(551.365 253.508)"/><ellipse class="h" cx="0.959" cy="0.95" rx="0.959" ry="0.95" transform="translate(987.482 287.801)"/><path class="h" d="M388.985,35.328a5.39,5.39,0,0,1,4.5,2.1,7.6,7.6,0,0,1,1.509,4.837,7.609,7.609,0,0,1-1.483,4.786,5.336,5.336,0,0,1-4.424,2.077,4.635,4.635,0,0,1-4.372-2.1V53.79h-2.046V35.683h1.918V37.2C385.459,35.791,387.007,35.328,388.985,35.328ZM388.729,37a3.537,3.537,0,0,0-3.094,1.545,5.964,5.964,0,0,0-1,3.6v.253a5.6,5.6,0,0,0,1.125,3.672,3.5,3.5,0,0,0,2.889,1.393A3.844,3.844,0,0,0,391.9,45.99a6.2,6.2,0,0,0,1-3.723,6.473,6.473,0,0,0-.946-3.7A3.683,3.683,0,0,0,388.729,37Z" transform="translate(604.813 253.508)"/><ellipse class="h" cx="0.955" cy="0.955" rx="0.955" ry="0.955" transform="translate(955.29 301.801)"/><path class="h" d="M193.028,11.688h2.046V30.125h-1.918v-1.52c-.788,1.431-2.386,1.874-4.4,1.874a5.442,5.442,0,0,1-4.526-2.077,7.6,7.6,0,0,1-1.483-4.862,7.436,7.436,0,0,1,1.483-4.761,5.225,5.225,0,0,1,4.423-2.1,4.792,4.792,0,0,1,4.372,2.127Zm-3.938,6.661a3.738,3.738,0,0,0-3.273,1.52,6.013,6.013,0,0,0-.972,3.672,6.377,6.377,0,0,0,.946,3.723,3.7,3.7,0,0,0,3.222,1.545,3.6,3.6,0,0,0,3.094-1.52,6.1,6.1,0,0,0,.972-3.571v-.253a5.931,5.931,0,0,0-1.1-3.7A3.48,3.48,0,0,0,189.09,18.349Z" transform="translate(762.135 272.159)"/><path class="h" d="M118.847,35.328a5.909,5.909,0,0,1,4.73,2.026,7.143,7.143,0,0,1,1.688,4.888,7.137,7.137,0,0,1-1.662,4.837,6,6,0,0,1-4.756,2.051,5.923,5.923,0,0,1-4.73-2.051,7.011,7.011,0,0,1-1.688-4.837,7.143,7.143,0,0,1,1.688-4.888A5.909,5.909,0,0,1,118.847,35.328Zm0,1.7a3.8,3.8,0,0,0-3.273,1.6,5.933,5.933,0,0,0-1.048,3.622,5.889,5.889,0,0,0,1.048,3.6,3.8,3.8,0,0,0,3.273,1.6,3.948,3.948,0,0,0,3.3-1.6,6.736,6.736,0,0,0,0-7.218A3.947,3.947,0,0,0,118.847,37.025Z" transform="translate(817.471 253.508)"/><path class="h" d="M323.915,35.328q4.884,0,5.421,4.077h-1.995a2.76,2.76,0,0,0-1.023-1.773,4.119,4.119,0,0,0-2.429-.608,3.8,3.8,0,0,0-2.148.506A1.5,1.5,0,0,0,320.9,38.9q0,.861,1.125,1.418a19.648,19.648,0,0,0,2.736.861,11.942,11.942,0,0,1,3.4,1.216,3.03,3.03,0,0,1,1.585,2.684q0,4.052-5.6,4.052-5.216,0-5.676-4.533h1.994a3.406,3.406,0,0,0,1.1,2.229,4.329,4.329,0,0,0,2.531.608q3.554,0,3.554-2.229a1.871,1.871,0,0,0-1.253-1.7,18.383,18.383,0,0,0-2.813-.836,11.71,11.71,0,0,1-3.273-1.165,2.808,2.808,0,0,1-1.509-2.558,3.028,3.028,0,0,1,1.483-2.634A6.107,6.107,0,0,1,323.915,35.328Z" transform="translate(655.334 253.508)"/><path class="h" d="M94.77,65.856v0a.959.959,0,0,0-1.918,0v0Z" transform="translate(832.877 230.175)"/><circle class="h" cx="1.028" cy="1.028" r="1.028" transform="translate(955.159 282.887)"/><g class="g" transform="translate(613.142 241.52)"><path class="i" d="M 362.449951171875 55.6093635559082 L 360.7459106445312 55.6093635559082 C 360.9185791015625 55.32259368896484 361.2359313964844 55.1299934387207 361.5981140136719 55.1299934387207 C 361.9601440429688 55.1299934387207 362.2773742675781 55.32259368896484 362.449951171875 55.6093635559082 Z"/><path class="j" d="M 363.087646484375 56.1093635559082 L 360.1083679199219 56.1093635559082 L 360.10791015625 56.10591125488281 C 360.10791015625 55.29067230224609 360.7749938964844 54.6299934387207 361.5981140136719 54.6299934387207 C 362.4208679199219 54.6299934387207 363.087890625 55.29067230224609 363.087890625 56.10591125488281 L 363.087646484375 56.1093635559082 Z"/></g><g class="g" transform="translate(833.384 250.643)"><path class="i" d="M 93.16582489013672 40.5726432800293 C 92.7874755859375 40.5726432800293 92.45754241943359 40.36438751220703 92.28775787353516 40.05800247192383 L 94.04417419433594 40.05800247192383 C 93.87433624267578 40.36438751220703 93.54430389404297 40.5726432800293 93.16582489013672 40.5726432800293 Z"/><path class="j" d="M 91.66888427734375 39.55800247192383 L 94.66314697265625 39.55800247192383 C 94.66314697265625 39.56772232055664 94.66598510742188 39.57711410522461 94.66598510742188 39.58682250976562 C 94.66598510742188 40.40743255615234 93.99435424804688 41.0726432800293 93.16582489013672 41.0726432800293 C 92.33731842041016 41.0726432800293 91.66598510742188 40.40743255615234 91.66598510742188 39.58682250976562 C 91.66598510742188 39.57711410522461 91.66852569580078 39.56772232055664 91.66888427734375 39.55800247192383 Z"/></g></g></g></svg>