<svg xmlns="http://www.w3.org/2000/svg" width="18" height="18" viewBox="0 0 18 18"><defs><style>.a,.d{fill:none;}.a{stroke:#999;}.b{fill:#999;}.c,.e{stroke:none;}.e{fill:#999;}</style></defs><g transform="translate(-2869 -10617)"><g class="a" transform="translate(2869 10617)"><circle class="c" cx="9" cy="9" r="9"/><circle class="d" cx="9" cy="9" r="8.5"/></g><g class="b" transform="translate(409 13979.5)"><path class="c" d="M 2468.500244140625 -3350.5 C 2466.845947265625 -3350.5 2465.500244140625 -3351.845703125 2465.500244140625 -3353.5 C 2465.500244140625 -3355.154296875 2466.845947265625 -3356.5 2468.500244140625 -3356.5 C 2469.66259765625 -3356.5 2472.57958984375 -3354.833740234375 2474.60302734375 -3353.50048828125 C 2472.298828125 -3351.98828125 2469.57373046875 -3350.5 2468.500244140625 -3350.5 Z M 2468.500244140625 -3355.500244140625 C 2467.397216796875 -3355.500244140625 2466.5 -3354.60302734375 2466.5 -3353.5 C 2466.5 -3352.39697265625 2467.397216796875 -3351.499755859375 2468.500244140625 -3351.499755859375 C 2469.602783203125 -3351.499755859375 2470.499755859375 -3352.39697265625 2470.499755859375 -3353.5 C 2470.499755859375 -3354.60302734375 2469.602783203125 -3355.500244140625 2468.500244140625 -3355.500244140625 Z"/><path class="e" d="M 2469.855712890625 -3351.400146484375 C 2470.915283203125 -3351.8564453125 2472.330810546875 -3352.64990234375 2473.680908203125 -3353.502197265625 C 2472.323974609375 -3354.362548828125 2470.90478515625 -3355.15380859375 2469.845947265625 -3355.606201171875 C 2470.539306640625 -3355.1611328125 2470.999755859375 -3354.38330078125 2470.999755859375 -3353.5 C 2470.999755859375 -3352.620849609375 2470.543701171875 -3351.84619140625 2469.855712890625 -3351.400146484375 M 2468.500244140625 -3350 C 2466.5703125 -3350 2465.000244140625 -3351.570068359375 2465.000244140625 -3353.5 C 2465.000244140625 -3355.429931640625 2466.5703125 -3357 2468.500244140625 -3357 C 2470.38720703125 -3357 2475.29150390625 -3353.64306640625 2475.499267578125 -3353.500244140625 L 2475.483642578125 -3353.487548828125 C 2474.958740234375 -3353.130615234375 2470.30517578125 -3350 2468.500244140625 -3350 Z M 2468.500244140625 -3355.000244140625 C 2467.673095703125 -3355.000244140625 2467 -3354.3271484375 2467 -3353.5 C 2467 -3352.6728515625 2467.673095703125 -3351.999755859375 2468.500244140625 -3351.999755859375 C 2469.3271484375 -3351.999755859375 2469.999755859375 -3352.6728515625 2469.999755859375 -3353.5 C 2469.999755859375 -3354.3271484375 2469.3271484375 -3355.000244140625 2468.500244140625 -3355.000244140625 Z"/></g></g></svg>