<svg xmlns="http://www.w3.org/2000/svg" xmlns:xlink="http://www.w3.org/1999/xlink" width="16" height="14" viewBox="0 0 16 14"><defs><style>.a,.e,.i{fill:none;}.a{stroke:#707070;opacity:0.55;}.b{fill:#fff;}.b,.e{stroke:#666;}.c{clip-path:url(#a);}.d{clip-path:url(#b);}.f{clip-path:url(#c);}.g{fill:#666;}.h{stroke:none;}</style><clipPath id="a"><rect class="a" width="16" height="14" transform="translate(860 553)"/></clipPath><clipPath id="b"><rect class="b" width="8" height="10" transform="translate(861 555)"/></clipPath><clipPath id="c"><rect class="b" width="7" height="10" transform="translate(868 555)"/></clipPath></defs><g class="c" transform="translate(-860 -553)"><g transform="translate(-0.5)"><g class="d"><g class="e" transform="translate(848 555)"><rect class="h" width="21" height="10" rx="5"/><rect class="i" x="0.5" y="0.5" width="20" height="9" rx="4.5"/></g></g><g class="f"><g class="e" transform="translate(868 555)"><rect class="h" width="21" height="10" rx="5"/><rect class="i" x="0.5" y="0.5" width="20" height="9" rx="4.5"/></g></g><g class="b" transform="translate(860.5 555)"><circle class="h" cx="0.5" cy="0.5" r="0.5"/><circle class="i" cx="0.5" cy="0.5"/></g><g class="b" transform="translate(860.5 564)"><circle class="h" cx="0.5" cy="0.5" r="0.5"/><circle class="i" cx="0.5" cy="0.5"/></g><path class="g" d="M2.646.354a.5.5,0,0,1,.707,0L5.146,2.146A.5.5,0,0,1,4.793,3H1.207a.5.5,0,0,1-.354-.854Z" transform="translate(876.7 552.5) rotate(90)"/><path class="g" d="M2.646.354a.5.5,0,0,1,.707,0L5.146,2.146A.5.5,0,0,1,4.793,3H1.207a.5.5,0,0,1-.354-.854Z" transform="translate(876.7 561.5) rotate(90)"/></g></g></svg>