<svg xmlns="http://www.w3.org/2000/svg" xmlns:xlink="http://www.w3.org/1999/xlink" width="22" height="22" viewBox="0 0 22 22"><defs><style>.a{fill:none;stroke:#707070;}.b{clip-path:url(#a);}.c{fill:#ce8137;}.d{filter:url(#b);}</style><clipPath id="a"><rect class="a" width="22" height="22" transform="translate(281 15)"/></clipPath><filter id="b" x="-7.999" y="-5" width="37.998" height="38" filterUnits="userSpaceOnUse"><feOffset dy="3" input="SourceAlpha"/><feGaussianBlur stdDeviation="3" result="c"/><feFlood flood-opacity="0.067"/><feComposite operator="in" in2="c"/><feComposite in="SourceGraphic"/></filter></defs><g class="b" transform="translate(-281 -15)"><g class="d" transform="matrix(1, 0, 0, 1, 281, 15)"><path class="c" d="M732-9029a10.011,10.011,0,0,1-10-10,10.01,10.01,0,0,1,10-10,10.01,10.01,0,0,1,10,10A10.011,10.011,0,0,1,732-9029Zm.2-6.64a.923.923,0,0,0-.922.922v.029a.923.923,0,0,0,.922.922.923.923,0,0,0,.922-.922v-.029A.923.923,0,0,0,732.2-9035.64Zm-.164-8.439a2.06,2.06,0,0,1,1.4.391,2,2,0,0,1,.854,1.52,1.693,1.693,0,0,1-.205.77l-.022.048a8.372,8.372,0,0,1-1.09,1.29,6.7,6.7,0,0,0-1.272,1.758,5.757,5.757,0,0,0-.318,1.755l1.528.025a3.94,3.94,0,0,1,.182-1.362,4.09,4.09,0,0,1,1.008-1.319,7.3,7.3,0,0,0,1.24-1.465,2.962,2.962,0,0,0,.329-1.388,3.291,3.291,0,0,0-1.022-2.508,3.745,3.745,0,0,0-2.58-.936,4.888,4.888,0,0,0-1.41.255,3.192,3.192,0,0,0-1.272.751,3.316,3.316,0,0,0-.806,1.179,5.094,5.094,0,0,0-.284,1.686v.22h1.4A2.6,2.6,0,0,1,732.039-9044.079Z" transform="translate(-721 9050)"/></g></g></svg>