<svg xmlns="http://www.w3.org/2000/svg" width="28" height="28" viewBox="0 0 28 28"><defs><style>.a{fill:#fc5a85;}.b{fill:#fff;}.c,.e{fill:none;}.c{stroke:#fc5a85;stroke-width:2px;}.d{stroke:none;}</style></defs><g transform="translate(-566 -141)"><rect class="a" width="26" height="26" rx="2" transform="translate(567 142)"/><path class="b" d="M10.728-14393a1,1,0,0,1-1-1v-8l4.762-5.2a1,1,0,0,1,1.476,0l5.572,6.082,4.5-4.24a1.009,1.009,0,0,1,1.371,0l6.314,5.943v5.414a1,1,0,0,1-1,1Z" transform="translate(558.271 14560)"/><circle class="b" cx="3" cy="3" r="3" transform="translate(585 144.001)"/><g class="c" transform="translate(566 141)"><rect class="d" width="28" height="28" rx="2"/><rect class="e" x="1" y="1" width="26" height="26" rx="1"/></g></g></svg>