<svg xmlns="http://www.w3.org/2000/svg" xmlns:xlink="http://www.w3.org/1999/xlink" width="125.998" height="36" viewBox="0 0 125.998 36"><defs><style>.a{fill:none;stroke:#707070;}.b{clip-path:url(#a);}.c{fill:url(#b);}.d{fill:url(#c);}.e{fill:url(#d);}.f{fill:url(#e);}.g{fill:#ce8137;}</style><clipPath id="a"><rect class="a" width="32" height="36" transform="translate(119 -1624)"/></clipPath><linearGradient id="b" x1="1" y1="0.464" x2="0.037" y2="0.464" gradientUnits="objectBoundingBox"><stop offset="0" stop-color="#fadf75"/><stop offset="1" stop-color="#ce8137"/></linearGradient><linearGradient id="c" x1="0.5" x2="0.5" y2="1" gradientUnits="objectBoundingBox"><stop offset="0" stop-color="#e1a705"/><stop offset="1" stop-color="#fadf76"/></linearGradient><linearGradient id="d" x1="0.5" x2="0.5" y2="1" gradientUnits="objectBoundingBox"><stop offset="0" stop-color="#ce8137"/><stop offset="1" stop-color="#e1c96e"/></linearGradient><linearGradient id="e" x1="0.975" y1="0.378" x2="0.018" y2="0.386" gradientUnits="objectBoundingBox"><stop offset="0" stop-color="#ce8137"/><stop offset="1" stop-color="#d29300"/></linearGradient></defs><g transform="translate(-15 -7)"><g transform="translate(-107 1631)"><g class="b" transform="translate(3)"><g transform="translate(-1830.24 7752)"><circle class="c" cx="4" cy="4" r="4" transform="translate(1963.241 -9362)"/><g transform="translate(-55.76 24)"><path class="d" d="M18,36A17.879,17.879,0,0,1,5.272,30.728a18.386,18.386,0,0,1-1.334-1.487A15.015,15.015,0,0,1,17.942,9h.053a9,9,0,1,0,6.082,15.633A4.5,4.5,0,0,1,30.444,31,17.882,17.882,0,0,1,18,36Zm6.135-24.579c-.125-.117-.254-.231-.384-.339.132.107.261.221.386.338h0Z" transform="translate(2005 -9400)"/><path class="e" d="M3.939,29.241A18,18,0,0,1,5.272,5.272,18,18,0,0,1,30.5,5.053l0,0a4.5,4.5,0,0,1-6.362,6.362A8.979,8.979,0,0,0,18,9h-.058a15.01,15.01,0,0,0-14,20.24Z" transform="translate(2005 -9400)"/><path class="f" d="M19,40A15,15,0,0,1,4,25.2a9,9,0,0,0,15.075,6.434A4.5,4.5,0,0,1,25.444,38c-.364.355-.767.71-1.2,1.057A14.94,14.94,0,0,1,19,40Z" transform="translate(2010 -9407)"/></g></g></g></g><path class="g" d="M6.84-13.1a5.692,5.692,0,0,1,3.708,1.17,4.761,4.761,0,0,1,1.71,3.1H10.35a3.086,3.086,0,0,0-1.242-1.926,4.014,4.014,0,0,0-2.3-.612A3.634,3.634,0,0,0,3.672-9.954a5.663,5.663,0,0,0-.99,3.546,5.805,5.805,0,0,0,.972,3.582A3.745,3.745,0,0,0,6.84-1.476a3.742,3.742,0,0,0,2.34-.7,3.979,3.979,0,0,0,1.35-2.268h1.908a5.671,5.671,0,0,1-2.016,3.51A5.505,5.505,0,0,1,6.858.252,5.7,5.7,0,0,1,2.106-1.764,7.166,7.166,0,0,1,.72-6.408,7.188,7.188,0,0,1,2.16-11.07,5.6,5.6,0,0,1,6.84-13.1ZM18.522-9.558a4.321,4.321,0,0,1,3.384,1.4,5.06,5.06,0,0,1,1.26,3.51A4.93,4.93,0,0,1,21.924-1.17a4.42,4.42,0,0,1-3.4,1.422,4.42,4.42,0,0,1-3.4-1.422,4.93,4.93,0,0,1-1.242-3.474,4.978,4.978,0,0,1,1.26-3.51A4.356,4.356,0,0,1,18.522-9.558Zm0,1.566A2.344,2.344,0,0,0,16.47-6.948a3.827,3.827,0,0,0-.63,2.3,3.793,3.793,0,0,0,.63,2.286,2.373,2.373,0,0,0,2.052,1.044,2.448,2.448,0,0,0,2.07-1.044,3.866,3.866,0,0,0,.648-2.286,3.8,3.8,0,0,0-.648-2.3A2.419,2.419,0,0,0,18.522-7.992ZM31.68-13.1h1.908V0H31.806V-1.116A3.333,3.333,0,0,1,28.926.252,3.9,3.9,0,0,1,25.7-1.206,5.418,5.418,0,0,1,24.624-4.7a5.288,5.288,0,0,1,1.062-3.4,3.766,3.766,0,0,1,3.15-1.458A3.362,3.362,0,0,1,31.68-7.92ZM29.268-8.01a2.369,2.369,0,0,0-2.088.954A3.953,3.953,0,0,0,26.586-4.7,4.334,4.334,0,0,0,27.144-2.3,2.279,2.279,0,0,0,29.214-1.3a2.264,2.264,0,0,0,1.926-.99,4.071,4.071,0,0,0,.594-2.286v-.162a3.874,3.874,0,0,0-.72-2.43A2.148,2.148,0,0,0,29.268-8.01ZM39.69-9.558A4.081,4.081,0,0,1,43.164-8.01,6.29,6.29,0,0,1,44.28-4.122H37.224a3.459,3.459,0,0,0,.738,2.088,2.31,2.31,0,0,0,1.782.72,2.646,2.646,0,0,0,1.62-.468,3.142,3.142,0,0,0,.846-1.206h1.908A4.3,4.3,0,0,1,42.84-.81,4.528,4.528,0,0,1,39.762.252,4.23,4.23,0,0,1,36.5-1.026a5.03,5.03,0,0,1-1.3-3.636,5.056,5.056,0,0,1,1.224-3.474A4.018,4.018,0,0,1,39.69-9.558Zm.054,1.566a2.311,2.311,0,0,0-1.71.63,3.2,3.2,0,0,0-.774,1.8h5.022A2.358,2.358,0,0,0,39.744-7.992Zm9.63-1.566q3.636,0,3.96,2.934H51.48a1.745,1.745,0,0,0-.666-1.044,2.692,2.692,0,0,0-1.476-.324,2.51,2.51,0,0,0-1.3.252.882.882,0,0,0-.5.828q0,.468.756.828a16.039,16.039,0,0,0,1.872.558,8.045,8.045,0,0,1,2.358.882A2.185,2.185,0,0,1,53.64-2.7Q53.64.252,49.5.252q-3.816,0-4.14-3.258h1.872A2.071,2.071,0,0,0,47.9-1.674a2.68,2.68,0,0,0,1.548.36q2.232,0,2.232-1.26a1.174,1.174,0,0,0-.828-1.062,10.123,10.123,0,0,0-1.872-.54,7.51,7.51,0,0,1-2.3-.81,2.114,2.114,0,0,1-1.08-1.872,2.25,2.25,0,0,1,1.044-1.98A4.727,4.727,0,0,1,49.374-9.558Zm10.548,0A3.936,3.936,0,0,1,63.144-8.1a5.418,5.418,0,0,1,1.08,3.492,5.381,5.381,0,0,1-1.062,3.4A3.766,3.766,0,0,1,60.012.252a3.37,3.37,0,0,1-2.844-1.62V3.564H55.26V-9.306h1.782V-8.19A3.3,3.3,0,0,1,59.922-9.558ZM59.634-8.01a2.179,2.179,0,0,0-1.926.99,4,4,0,0,0-.594,2.3v.162a3.688,3.688,0,0,0,.738,2.412A2.067,2.067,0,0,0,59.58-1.3a2.386,2.386,0,0,0,2.07-.918,4.136,4.136,0,0,0,.612-2.394A4.5,4.5,0,0,0,61.7-7,2.305,2.305,0,0,0,59.634-8.01ZM70.308-9.558a4.321,4.321,0,0,1,3.384,1.4,5.06,5.06,0,0,1,1.26,3.51A4.93,4.93,0,0,1,73.71-1.17a4.42,4.42,0,0,1-3.4,1.422,4.42,4.42,0,0,1-3.4-1.422,4.93,4.93,0,0,1-1.242-3.474,4.978,4.978,0,0,1,1.26-3.51A4.356,4.356,0,0,1,70.308-9.558Zm0,1.566a2.344,2.344,0,0,0-2.052,1.044,3.827,3.827,0,0,0-.63,2.3,3.794,3.794,0,0,0,.63,2.286,2.373,2.373,0,0,0,2.052,1.044,2.448,2.448,0,0,0,2.07-1.044,3.866,3.866,0,0,0,.648-2.286,3.8,3.8,0,0,0-.648-2.3A2.419,2.419,0,0,0,70.308-7.992ZM81.09-9.558a2.7,2.7,0,0,1,1.206.234v1.908a4.594,4.594,0,0,0-1.35-.2,2.111,2.111,0,0,0-1.548.7,2.714,2.714,0,0,0-.72,1.98V0H76.77V-9.306h1.908v1.4a2.787,2.787,0,0,1,.9-1.134A2.293,2.293,0,0,1,81.09-9.558Zm6.318,0A4.081,4.081,0,0,1,90.882-8.01,6.29,6.29,0,0,1,92-4.122H84.942a3.459,3.459,0,0,0,.738,2.088,2.31,2.31,0,0,0,1.782.72,2.646,2.646,0,0,0,1.62-.468,3.142,3.142,0,0,0,.846-1.206h1.908A4.3,4.3,0,0,1,90.558-.81,4.528,4.528,0,0,1,87.48.252a4.23,4.23,0,0,1-3.258-1.278,5.03,5.03,0,0,1-1.3-3.636A5.056,5.056,0,0,1,84.15-8.136,4.018,4.018,0,0,1,87.408-9.558Zm.054,1.566a2.311,2.311,0,0,0-1.71.63,3.2,3.2,0,0,0-.774,1.8H90A2.358,2.358,0,0,0,87.462-7.992Z" transform="translate(49 31.104)"/></g></svg>