<svg xmlns="http://www.w3.org/2000/svg" xmlns:xlink="http://www.w3.org/1999/xlink" width="22" height="22" viewBox="0 0 22 22"><defs><style>.a,.e{fill:#fff;}.a{stroke:#0fbd8c;}.b{clip-path:url(#a);}.c,.g{fill:none;}.c{stroke:#ff3636;}.d{fill:#ff3636;}.e{opacity:0;}.f{stroke:none;}</style><clipPath id="a"><path class="a" d="M0,0H20V20H0Z" transform="translate(1138 566)"/></clipPath></defs><g transform="translate(-1592 -570)"><g transform="translate(195.347 -328.652)"><g class="c" transform="translate(1400.653 902.653)"><circle class="f" cx="7" cy="7" r="7"/><circle class="g" cx="7" cy="7" r="6.5"/></g><path class="d" d="M1.82-3.653H2.7L2.87-7.03l.042-1.456H1.61L1.652-7.03ZM2.254-.818a.917.917,0,0,0,.924-.966.941.941,0,0,0-.924-.994.949.949,0,0,0-.924.994A.925.925,0,0,0,2.254-.818Z" transform="translate(1405.399 914.139)"/></g><path class="e" d="M0,0H22V22H0Z" transform="translate(1592 570)"/></g></svg>