<svg xmlns="http://www.w3.org/2000/svg" xmlns:xlink="http://www.w3.org/1999/xlink" width="14" height="14" viewBox="0 0 14 14"><defs><style>.a{fill:#fc5a85;}.a,.b{stroke:#707070;}.a,.b,.d{stroke-linecap:round;stroke-linejoin:round;}.b,.d,.f{fill:none;}.c{clip-path:url(#a);}.e,.g{stroke:none;}.g{fill:#707070;}</style><clipPath id="a"><rect class="a" width="14" height="14" rx="2" transform="translate(4836 16495)"/></clipPath></defs><g transform="translate(-4836 -16495)"><g class="b" transform="translate(4836 16495)"><rect class="e" width="14" height="14" rx="2"/><rect class="f" x="0.5" y="0.5" width="13" height="13" rx="1.5"/></g><g class="b" transform="translate(4845 16497)"><circle class="e" cx="1.5" cy="1.5" r="1.5"/><circle class="f" cx="1.5" cy="1.5" r="1"/></g><g class="c"><g class="d" transform="translate(4832.339 16500.902)"><path class="e" d="M7,8.825H1.085A1,1,0,0,1,.348,7.149L6.575.356a1,1,0,0,1,1.474,0L10.563,3.1l1.988-1.871a1,1,0,0,1,1.371,0L20.158,7.1a1,1,0,0,1-.685,1.728Z"/><path class="g" d="M 19.47261810302734 7.82450008392334 L 19.47279930114746 7.82466983795166 L 13.2367992401123 1.954870104789734 L 11.24884986877441 3.826050043106079 C 11.05405902862549 4.009399890899658 10.79391956329346 4.107061862945557 10.52660942077637 4.0971999168396 C 10.25928974151611 4.087349891662598 10.00705909729004 3.970800161361694 9.826299667358398 3.773600101470947 L 7.312549591064453 1.031220078468323 L 1.085749387741089 7.824100017547607 C 1.085630774497986 7.824229717254639 1.086066722869873 7.824152946472168 1.085399389266968 7.82450008392334 L 19.47261810302734 7.82450008392334 M 19.47329902648926 8.82450008392334 L 1.085399389266968 8.82450008392334 C 0.215099424123764 8.82450008392334 -0.2394005805253983 7.79040002822876 0.3482994139194489 7.14870023727417 L 6.575399398803711 0.3555000722408295 C 6.971399307250977 -0.07649954408407211 7.653598785400391 -0.076500304043293 8.049599647521973 0.3555000722408295 L 10.56344985961914 3.097880125045776 L 12.55139923095703 1.226700067520142 C 12.93659973144531 0.8649001121520996 13.53690052032471 0.8649001121520996 13.92209911346436 1.226700067520142 L 20.15819931030273 7.096499919891357 C 20.81789970397949 7.716599941253662 20.37870025634766 8.82450008392334 19.47329902648926 8.82450008392334 Z"/></g></g></g></svg>