<svg xmlns="http://www.w3.org/2000/svg" xmlns:xlink="http://www.w3.org/1999/xlink" width="22" height="22" viewBox="0 0 22 22"><defs><style>.a,.b{fill:none;stroke:#707070;}.b{opacity:0.46;}.c{clip-path:url(#a);}.d{clip-path:url(#b);}.e{fill:#ce8137;}</style><clipPath id="a"><rect class="a" width="22" height="22" transform="translate(344 15)"/></clipPath><clipPath id="b"><rect class="b" width="20" height="20" transform="translate(363 18)"/></clipPath></defs><g class="c" transform="translate(-344 -15)"><g class="d" transform="translate(-18 -1)"><g transform="translate(0 -0.362)"><path class="e" d="M10.95-9072h0a10.031,10.031,0,0,1-4.331-2.509,2.989,2.989,0,0,0,.077-3.128,3.01,3.01,0,0,0-2.6-1.5c-.057,0-.107,0-.153,0a10,10,0,0,1-.317-2.5,10.016,10.016,0,0,1,.317-2.5c.05,0,.106,0,.153,0a3.007,3.007,0,0,0,2.6-1.5,2.992,2.992,0,0,0-.08-3.128,10.023,10.023,0,0,1,4.334-2.51,2.988,2.988,0,0,0,2.672,1.637,2.992,2.992,0,0,0,2.674-1.637,10.021,10.021,0,0,1,4.333,2.508,2.991,2.991,0,0,0-.079,3.128,3.013,3.013,0,0,0,2.6,1.5c.064,0,.111,0,.153,0a10.011,10.011,0,0,1,.317,2.5,10.006,10.006,0,0,1-.318,2.5c-.045,0-.092,0-.155,0a3.011,3.011,0,0,0-2.6,1.5,3,3,0,0,0,.079,3.129A10.026,10.026,0,0,1,16.3-9072a2.994,2.994,0,0,0-2.676-1.637A2.988,2.988,0,0,0,10.951-9072Zm2.675-13.636a4.005,4.005,0,0,0-4,4,4,4,0,0,0,4,4,4,4,0,0,0,4-4A4,4,0,0,0,13.625-9085.636Z" transform="translate(359.376 9110)"/><circle class="e" cx="2" cy="2" r="2" transform="translate(371 26)"/></g></g></g></svg>