<svg xmlns="http://www.w3.org/2000/svg" xmlns:xlink="http://www.w3.org/1999/xlink" width="48" height="48" viewBox="0 0 48 48"><defs><style>.a,.b,.d,.g{fill:none;}.a{stroke:#707070;}.c{clip-path:url(#a);}.d,.g{stroke:#fff;stroke-width:3px;}.d{stroke-linecap:round;fill-rule:evenodd;}.e{fill:#fff;}.f{clip-path:url(#b);}.h{stroke:none;}</style><clipPath id="a"><rect class="a" width="48" height="48" transform="translate(1692 154)"/></clipPath><clipPath id="b"><rect class="b" width="22" height="19" rx="2" transform="translate(1707 168)"/></clipPath></defs><g class="c" transform="translate(-1692 -154)"><g transform="translate(0 -1)"><g transform="translate(1097.856 -200.75)"><path class="d" d="M9.576,1.5H15.5a2,2,0,0,1,2,2v6" transform="translate(619.067 359.75)"/><path class="d" d="M17.5,1.5H11.576a2,2,0,0,0-2,2v6" transform="translate(590.067 359.75)"/></g><g transform="translate(1695.5 189.5)"><path class="d" d="M9.576,9.5H15.5a2,2,0,0,0,2-2v-6" transform="translate(21.424 -1.5)"/><path class="d" d="M17.5,9.5H11.576a2,2,0,0,1-2-2v-6" transform="translate(-7.576 -1.5)"/></g><circle class="e" cx="2" cy="2" r="2" transform="translate(1711 172)"/><g class="f"><g transform="translate(0 1)"><path class="e" d="M11.4.45a1,1,0,0,1,1.2,0l9,6.75A1,1,0,0,1,21,9H3a1,1,0,0,1-.6-1.8Z" transform="translate(1701 178)"/><path class="e" d="M12.836.591a1,1,0,0,1,1.329,0l10.87,9.662A1,1,0,0,1,24.37,12H2.63a1,1,0,0,1-.664-1.747Z" transform="translate(1710 175)"/></g></g><g class="g" transform="translate(1707 168)"><rect class="h" width="22" height="20" rx="2"/><rect class="b" x="1.5" y="1.5" width="19" height="17" rx="0.5"/></g><path class="e" d="M-11187,22132h-14a4,4,0,0,1-4-4v-13a4,4,0,0,1,3-3.873V22127a2,2,0,0,0,2,2h16.876A4,4,0,0,1-11187,22132Z" transform="translate(12908 -21940)"/></g></g></svg>