<svg xmlns="http://www.w3.org/2000/svg" width="17.997" height="18.004" viewBox="0 0 17.997 18.004"><defs><style>.a{fill:#ff3e3e;}.b,.c{stroke:none;}.c{fill:#ff3e3e;}</style></defs><g transform="translate(-1322.003 -89.996)"><g transform="translate(0.001 -0.002)"><g class="a" transform="translate(-3400 -23373)"><path class="b" d="M 4731.00048828125 23480.501953125 C 4728.72900390625 23480.501953125 4726.59423828125 23479.6171875 4724.990234375 23478.009765625 C 4723.3857421875 23476.404296875 4722.501953125 23474.26953125 4722.501953125 23471.998046875 C 4722.501953125 23467.310546875 4726.314453125 23463.498046875 4731.00048828125 23463.498046875 C 4735.6865234375 23463.498046875 4739.4990234375 23467.310546875 4739.4990234375 23471.998046875 C 4739.4990234375 23476.6875 4735.6865234375 23480.501953125 4731.00048828125 23480.501953125 Z M 4730.66015625 23474.7890625 C 4729.99560546875 23474.943359375 4729.4990234375 23475.541015625 4729.4990234375 23476.251953125 C 4729.4990234375 23477.076171875 4730.17236328125 23477.748046875 4731.00048828125 23477.748046875 C 4731.82861328125 23477.748046875 4732.50244140625 23477.076171875 4732.50244140625 23476.251953125 C 4732.50244140625 23475.546875 4732.01416015625 23474.953125 4731.35791015625 23474.79296875 C 4731.7744140625 23474.640625 4731.99365234375 23474.20703125 4732.00146484375 23473.771484375 L 4732.50048828125 23467.7890625 L 4732.50244140625 23467.76953125 L 4732.50244140625 23467.748046875 C 4732.50244140625 23466.923828125 4731.82861328125 23466.251953125 4731.00048828125 23466.251953125 C 4730.17236328125 23466.251953125 4729.4990234375 23466.923828125 4729.4990234375 23467.748046875 L 4729.4990234375 23467.76953125 L 4729.5009765625 23467.7890625 L 4730 23473.771484375 C 4730.0078125 23474.12890625 4730.1923828125 23474.619140625 4730.66015625 23474.7890625 Z"/><path class="c" d="M 4731.00048828125 23480.001953125 C 4735.4111328125 23480.001953125 4738.9990234375 23476.412109375 4738.9990234375 23471.998046875 C 4738.9990234375 23467.5859375 4735.4111328125 23463.998046875 4731.00048828125 23463.998046875 C 4726.59033203125 23463.998046875 4723.001953125 23467.5859375 4723.001953125 23471.998046875 C 4723.001953125 23474.13671875 4723.83349609375 23476.146484375 4725.34375 23477.65625 C 4726.853515625 23479.169921875 4728.8623046875 23480.001953125 4731.00048828125 23480.001953125 M 4729.7705078125 23474.673828125 C 4729.6015625 23474.412109375 4729.509765625 23474.1015625 4729.50048828125 23473.798828125 L 4728.9990234375 23467.7890625 L 4728.9990234375 23467.748046875 C 4728.9990234375 23466.646484375 4729.89697265625 23465.751953125 4731.00048828125 23465.751953125 C 4732.1044921875 23465.751953125 4733.00244140625 23466.646484375 4733.00244140625 23467.748046875 L 4733.00244140625 23467.7890625 L 4732.9990234375 23467.83203125 L 4732.5009765625 23473.798828125 C 4732.4921875 23474.10546875 4732.40283203125 23474.416015625 4732.23828125 23474.6796875 C 4732.703125 23475.046875 4733.00244140625 23475.615234375 4733.00244140625 23476.251953125 C 4733.00244140625 23477.353515625 4732.1044921875 23478.248046875 4731.00048828125 23478.248046875 C 4729.89697265625 23478.248046875 4728.9990234375 23477.353515625 4728.9990234375 23476.251953125 C 4728.9990234375 23475.611328125 4729.30126953125 23475.041015625 4729.7705078125 23474.673828125 M 4731.00048828125 23481.001953125 C 4728.5947265625 23481.001953125 4726.33447265625 23480.064453125 4724.63623046875 23478.36328125 C 4722.9375 23476.6640625 4722.001953125 23474.404296875 4722.001953125 23471.998046875 C 4722.001953125 23467.03515625 4726.03857421875 23462.998046875 4731.00048828125 23462.998046875 C 4735.96240234375 23462.998046875 4739.9990234375 23467.03515625 4739.9990234375 23471.998046875 C 4739.9990234375 23476.962890625 4735.96240234375 23481.001953125 4731.00048828125 23481.001953125 Z M 4731.00048828125 23475.25 C 4730.4482421875 23475.25 4729.9990234375 23475.69921875 4729.9990234375 23476.251953125 C 4729.9990234375 23476.80078125 4730.4482421875 23477.248046875 4731.00048828125 23477.248046875 C 4731.552734375 23477.248046875 4732.00244140625 23476.80078125 4732.00244140625 23476.251953125 C 4732.00244140625 23475.69921875 4731.552734375 23475.25 4731.00048828125 23475.25 Z M 4731.00048828125 23466.751953125 C 4730.4482421875 23466.751953125 4729.9990234375 23467.19921875 4729.9990234375 23467.748046875 L 4730.49951171875 23473.748046875 C 4730.49951171875 23473.75390625 4730.50537109375 23474.33203125 4731.00048828125 23474.349609375 L 4731.0244140625 23474.349609375 C 4731.49609375 23474.349609375 4731.50146484375 23473.75390625 4731.50146484375 23473.748046875 L 4732.00244140625 23467.748046875 C 4732.00244140625 23467.19921875 4731.552734375 23466.751953125 4731.00048828125 23466.751953125 Z"/></g></g></g></svg>