<?xml version="1.0" standalone="no"?><!DOCTYPE svg PUBLIC "-//W3C//DTD SVG 1.1//EN" "http://www.w3.org/Graphics/SVG/1.1/DTD/svg11.dtd"><svg t="1558162531624" class="icon" style="" viewBox="0 0 1024 1024" version="1.1" xmlns="http://www.w3.org/2000/svg" p-id="4690" xmlns:xlink="http://www.w3.org/1999/xlink" width="64" height="64"><defs><style type="text/css"></style></defs><path d="M952.32 642.77504V921.6c0 28.28288-22.89664 51.2-51.17952 51.2h-778.24A51.22048 51.22048 0 0 1 71.68 921.6V642.77504a51.2 51.2 0 1 1 102.4 0V870.4h675.84V642.77504a51.2 51.2 0 1 1 102.4 0zM344.32 346.76736L460.8 227.84v443.33056a51.2 51.2 0 1 0 102.4 0V227.85024l116.48 118.91712a51.02592 51.02592 0 0 0 36.58752 15.37024 51.2 51.2 0 0 0 36.56704-87.02976L548.59776 66.58048a51.16928 51.16928 0 0 0-73.15456-0.01024L271.18592 275.10784a51.2 51.2 0 1 0 73.13408 71.65952z" fill="#666666" p-id="4691"></path></svg>