<svg xmlns="http://www.w3.org/2000/svg" xmlns:xlink="http://www.w3.org/1999/xlink" width="22" height="22" viewBox="0 0 22 22"><defs><style>.a,.f{fill:#fff;}.a{opacity:0;}.b,.e,.j{fill:none;}.b,.e,.f{stroke:#242424;}.b,.e{stroke-linecap:round;}.c{clip-path:url(#a);}.d{clip-path:url(#b);}.e{stroke-linejoin:round;}.g{fill:#242424;}.h{clip-path:url(#c);}.i{stroke:none;}</style><clipPath id="a"><rect class="a" width="22" height="22" transform="translate(19444 -16195)"/></clipPath><clipPath id="b"><path class="b" d="M0,0H14L8.094,7l-8.1-.317Z" transform="translate(1630 126)"/></clipPath><clipPath id="c"><path class="b" d="M0,0H14L8.094,7-.132,6.659Z" transform="translate(0 0)"/></clipPath></defs><g transform="translate(-19444 16197)"><g class="c" transform="translate(0 -2)"><g transform="translate(1.891 0.999)"><g transform="translate(18456.469 -17490.693) rotate(48)"><g class="d"><g class="e" transform="translate(1630 126)"><circle class="i" cx="7" cy="7" r="7"/><circle class="j" cx="7" cy="7" r="6.5"/></g></g><g class="f" transform="translate(1641.256 128.076)"><circle class="i" cx="0.5" cy="0.5" r="0.5"/><circle class="j" cx="0.5" cy="0.5"/></g><path class="g" d="M13170.5,17196a.5.5,0,0,1-.5-.5v-2a.5.5,0,0,1,1,0v1.5h1.5a.5.5,0,1,1,0,1Z" transform="matrix(0.819, -0.574, 0.574, 0.819, -19021, -6398.744)"/></g><g transform="translate(19454.045 -16173.564) rotate(-132)"><g transform="translate(2.343 0)"><g class="h" transform="translate(0)"><g class="e" transform="translate(0 0)"><ellipse class="i" cx="7" cy="7" rx="7" ry="7"/><ellipse class="j" cx="7" cy="7" rx="6.5" ry="6.5"/></g></g><g class="f" transform="translate(11.31 2.124)"><ellipse class="i" cx="0.5" cy="0.5" rx="0.5" ry="0.5"/><ellipse class="j" cx="0.5" cy="0.5"/></g></g><path class="g" d="M.5,5A.5.5,0,0,1,0,4.5v-2a.5.5,0,1,1,1,0V4H2.5a.5.5,0,0,1,0,1Z" transform="matrix(0.819, -0.574, 0.574, 0.819, -0.074, 3.298)"/></g></g></g><rect class="a" width="22" height="22" transform="translate(19444 -16197)"/></g></svg>