<svg xmlns="http://www.w3.org/2000/svg" xmlns:xlink="http://www.w3.org/1999/xlink" width="22" height="22" viewBox="0 0 22 22"><defs><style>.a{fill:none;}.b{clip-path:url(#a);}.c{fill:#3ba1ff;}</style><clipPath id="a"><rect class="a" width="22" height="22" transform="translate(23 203)"/></clipPath></defs><g class="b" transform="translate(-23 -203)"><path class="c" d="M4629,23297a8,8,0,1,1,8-8A8.011,8.011,0,0,1,4629,23297Zm-4-9a1,1,0,1,0,0,2h3v3a1,1,0,1,0,2,0v-3h3a1,1,0,1,0,0-2h-3v-3a1,1,0,1,0-2,0v3Z" transform="translate(-4595 -23075)"/></g></svg>