<svg xmlns="http://www.w3.org/2000/svg" xmlns:xlink="http://www.w3.org/1999/xlink" width="34" height="32" viewBox="0 0 34 32"><defs><style>.a{fill:none;stroke:#707070;opacity:0.52;}.b{clip-path:url(#a);}.c{fill:#a394df;}.d{fill:#fff;}.e{fill:#fbb900;}.f{fill:#fedd00;}</style><clipPath id="a"><rect class="a" width="34" height="32" transform="translate(14784 14778)"/></clipPath></defs><g class="b" transform="translate(-14784 -14778)"><g transform="translate(14221.877 14543)"><path class="c" d="M16.5,32a16.794,16.794,0,0,1-6.907-1.465,7.36,7.36,0,0,0-.478-5.356,7.328,7.328,0,0,0-6.429-4.317,5.755,5.755,0,0,0-1.811.289A15.649,15.649,0,0,1,4.832,4.687,16.655,16.655,0,0,1,16.5,0,16.655,16.655,0,0,1,28.166,4.687a15.66,15.66,0,0,1,0,22.628A16.654,16.654,0,0,1,16.5,32Z" transform="translate(562.001 234.999)"/><circle class="d" cx="2.912" cy="2.912" r="2.912" transform="translate(565.882 249.558)"/><circle class="d" cx="2.426" cy="2.426" r="2.426" transform="translate(570.735 241.793)"/><circle class="d" cx="1.941" cy="1.941" r="1.941" transform="translate(580.441 239.852)"/><g transform="translate(592.633 236.146) rotate(40)"><path class="e" d="M2.426,0h0A1.487,1.487,0,0,1,3.882,1.618l.971,15.309a2.426,2.426,0,1,1-4.853,0L.971,1.618A1.487,1.487,0,0,1,2.426,0Z" transform="translate(1.456 0)"/><path class="f" d="M3.882,0C6.027,0,7.765.768,7.765,3.882S4.085,12.618,2.912,8.735,0,6.027,0,3.882A3.882,3.882,0,0,1,3.882,0Z" transform="translate(0 21.324)"/></g></g></g></svg>