<svg xmlns="http://www.w3.org/2000/svg" width="56" height="56" viewBox="0 0 56 56"><defs><style>.a,.c{fill:#999;}.b,.e{fill:none;}.b{stroke:#999;stroke-width:2px;}.c{opacity:0;}.d{stroke:none;}</style></defs><g transform="translate(-17857 22135)"><g transform="translate(0 -1)"><path class="a" d="M25.455,48A24.013,24.013,0,0,1,5.249,11.038L15.507,21.3A12,12,0,0,0,32.161,37.95l6.258,6.258A23.872,23.872,0,0,1,25.455,48Zm17.582-7.665h0l-6.888-6.888A11.852,11.852,0,0,0,37.457,28a12.013,12.013,0,0,0-12-12A11.856,11.856,0,0,0,20.01,17.31L9.12,6.42A24,24,0,0,1,43.037,40.337ZM25.455,8a3,3,0,1,0,3,3A3,3,0,0,0,25.455,8Z" transform="translate(17859.543 -22133.002)"/><g class="b" transform="translate(17860.957 -22128.627) rotate(-45)"><rect class="d" width="2.002" height="66" rx="1.001"/><rect class="e" x="1" y="1" width="0.002" height="64" rx="0.001"/></g><rect class="a" width="32" height="4" rx="2" transform="translate(17869 -22083)"/><rect class="a" width="10.77" height="4" rx="2" transform="translate(17890.898 -22090.377) rotate(65)"/><rect class="a" width="10.77" height="4" rx="2" transform="translate(17882.873 -22088.686) rotate(115)"/></g><rect class="c" width="56" height="56" transform="translate(17857 -22135)"/></g></svg>