<svg xmlns="http://www.w3.org/2000/svg" xmlns:xlink="http://www.w3.org/1999/xlink" width="56" height="56" viewBox="0 0 56 56"><defs><style>.a{fill:#fbe798;}.b{fill:#ce8137;}.c{filter:url(#a);}</style><filter id="a" x="0" y="0" width="56" height="56" filterUnits="userSpaceOnUse"><feOffset dy="2" input="SourceAlpha"/><feGaussianBlur stdDeviation="2" result="b"/><feFlood flood-color="#757575" flood-opacity="0.247"/><feComposite operator="in" in2="b"/><feComposite in="SourceGraphic"/></filter></defs><g transform="translate(-1807 -66)"><g class="c" transform="matrix(1, 0, 0, 1, 1807, 66)"><rect class="a" width="44" height="44" rx="22" transform="translate(6 4)"/></g><path class="b" d="M-11195.455,22012.131l-8.327-8.326a1.476,1.476,0,0,1-.159-.137,1.5,1.5,0,0,1-.438-1.072,1.494,1.494,0,0,1,.438-1.07,1.482,1.482,0,0,1,.163-.143l8.323-8.322a1.5,1.5,0,0,1,2.121,0,1.5,1.5,0,0,1,0,2.121l-5.878,5.879h13.579a1.5,1.5,0,0,1,1.5,1.5,1.5,1.5,0,0,1-1.5,1.5h-13.651l5.95,5.949a1.5,1.5,0,0,1,0,2.121,1.5,1.5,0,0,1-1.061.439A1.493,1.493,0,0,1-11195.455,22012.131Z" transform="translate(13029.135 -21910.623)"/></g></svg>