<svg xmlns="http://www.w3.org/2000/svg" xmlns:xlink="http://www.w3.org/1999/xlink" width="88" height="126" viewBox="0 0 88 126"><defs><style>.a,.c{fill:#fff;}.b{fill:#ce8137;}.c{opacity:0;}.d{filter:url(#a);}</style><filter id="a" x="0" y="0" width="88" height="126" filterUnits="userSpaceOnUse"><feOffset dy="8" input="SourceAlpha"/><feGaussianBlur stdDeviation="10" result="b"/><feFlood flood-opacity="0.02"/><feComposite operator="in" in2="b"/><feComposite in="SourceGraphic"/></filter></defs><g transform="translate(-1699 -497)"><g class="d" transform="matrix(1, 0, 0, 1, 1699, 497)"><path class="a" d="M6,0H28a0,0,0,0,1,0,0V66a0,0,0,0,1,0,0H6a6,6,0,0,1-6-6V6A6,6,0,0,1,6,0Z" transform="translate(30 22)"/></g><g transform="translate(1 -3)"><path class="b" d="M-11197.224,22010.359l-6.923-6.922a.952.952,0,0,1-.147-.121,1,1,0,0,1-.29-.721,1.009,1.009,0,0,1,.29-.721.843.843,0,0,1,.13-.107l6.946-6.941a1.007,1.007,0,0,1,1.414,0,1.007,1.007,0,0,1,0,1.414l-6.355,6.355,6.35,6.35a1,1,0,0,1,0,1.414.983.983,0,0,1-.705.295A1,1,0,0,1-11197.224,22010.359Z" transform="translate(12941.637 -21448.035)"/><rect class="c" width="22" height="22" transform="translate(1731 544)"/></g></g></svg>