<svg xmlns="http://www.w3.org/2000/svg" width="48" height="48" viewBox="0 0 48 48"><defs><style>.a{fill:#e1b387;}.b{fill:#fff;opacity:0;}</style></defs><g transform="translate(-616 -100)"><path class="a" d="M-11185.5,22025h-6.5a1.5,1.5,0,0,1-1.5-1.5,1.5,1.5,0,0,1,1.5-1.5h3.5v-3h-11.5a4.008,4.008,0,0,1-4-4v-18a4.008,4.008,0,0,1,4-4h26a4.008,4.008,0,0,1,4,4v18a4.008,4.008,0,0,1-4,4h-11.5v3h3.5a1.5,1.5,0,0,1,1.5,1.5,1.5,1.5,0,0,1-1.5,1.5Zm-15.5-14.5a1.5,1.5,0,0,0,1.5,1.5h10a1.5,1.5,0,0,0,1.5-1.5,1.5,1.5,0,0,0-1.5-1.5h-10A1.5,1.5,0,0,0-11201,22010.5Zm21.226-.459.205.52a1.528,1.528,0,0,0,1.393.939,1.541,1.541,0,0,0,.563-.115,1.489,1.489,0,0,0,.818-.8,1.505,1.505,0,0,0,.011-1.15l-3.371-8.348a1.493,1.493,0,0,0-1.354-.934h-.066a1.508,1.508,0,0,0-1.393.934l-3.372,8.348a1.511,1.511,0,0,0,.829,1.951,1.521,1.521,0,0,0,.563.111,1.483,1.483,0,0,0,1.388-.936l.21-.52Zm3.82-8.352v8.2a1.5,1.5,0,0,0,1.5,1.5,1.5,1.5,0,0,0,1.5-1.5v-8.2a1.5,1.5,0,0,0-1.5-1.5A1.5,1.5,0,0,0-11175.953,22001.688Zm-25.046-.193a1.505,1.505,0,0,0,1.5,1.5h10a1.5,1.5,0,0,0,1.5-1.5,1.5,1.5,0,0,0-1.5-1.5h-10A1.5,1.5,0,0,0-11201,22001.494Zm18.865,5.543.575-1.414.569,1.41v0Z" transform="translate(11826.998 -21884.992)"/><rect class="b" width="48" height="48" transform="translate(616 100)"/></g></svg>